<?xml version="1.0" encoding="UTF-8"?>
<svg id="Layer_1" data-name="Layer 1" xmlns="http://www.w3.org/2000/svg" xmlns:xlink="http://www.w3.org/1999/xlink" viewBox="0 0 394.19 379.04">
  <defs>
    <style>
      .cls-1 {
        fill: #303a44;
      }

      .cls-2 {
        fill: #74c6ef;
      }

      .cls-3 {
        fill: #80d8f5;
      }

      .cls-4 {
        fill: #5aadee;
      }

      .cls-5 {
        fill: #121c28;
      }

      .cls-6 {
        fill: #1a2530;
      }

      .cls-7 {
        fill: #83b4e7;
      }

      .cls-8 {
        fill: #3b434e;
      }

      .cls-9 {
        fill: #8aa4dc;
      }

      .cls-10 {
        fill: #657776;
      }

      .cls-11 {
        fill: #1c2530;
      }

      .cls-12 {
        fill: #3bede9;
      }

      .cls-13 {
        fill: #88bceb;
      }

      .cls-14 {
        fill: #233037;
      }

      .cls-15 {
        fill: #4dcbd3;
      }

      .cls-16 {
        fill: #90a2e6;
      }

      .cls-17 {
        fill: #050505;
      }

      .cls-18 {
        fill: #7dc0f4;
      }

      .cls-19 {
        fill: #7e8891;
      }

      .cls-20 {
        fill: #2ae3d3;
      }

      .cls-21 {
        fill: #66a3ed;
      }

      .cls-22 {
        fill: #6eb7f0;
      }

      .cls-23 {
        fill: #282c31;
      }

      .cls-24 {
        fill: #93c5e0;
      }

      .cls-25 {
        fill: #32b3a4;
      }

      .cls-26 {
        fill: #8a95d9;
      }

      .cls-27 {
        fill: #19232d;
      }

      .cls-28 {
        fill: #121d2a;
      }

      .cls-29 {
        fill: #a4f4e9;
      }

      .cls-30 {
        fill: #407f7e;
      }

      .cls-31 {
        fill: #5ec9ca;
      }

      .cls-32 {
        fill: #333d47;
      }

      .cls-33 {
        fill: #5a6570;
      }

      .cls-34 {
        fill: #39424c;
      }

      .cls-35 {
        fill: #026787;
      }

      .cls-36 {
        fill: #28353b;
      }

      .cls-37 {
        fill: #6d7788;
      }

      .cls-38 {
        fill: #323a42;
      }

      .cls-39 {
        fill: #7e8791;
      }

      .cls-40 {
        fill: #18212d;
      }

      .cls-41 {
        fill: #758396;
      }

      .cls-42 {
        fill: #2ec5d0;
      }

      .cls-43 {
        fill: #111b27;
      }

      .cls-44 {
        fill: url(#linear-gradient-5);
      }

      .cls-45 {
        fill: url(#linear-gradient-4);
      }

      .cls-46 {
        fill: url(#linear-gradient-3);
      }

      .cls-47 {
        fill: url(#linear-gradient-2);
      }

      .cls-48 {
        fill: #2e3b47;
      }

      .cls-49 {
        fill: #101b28;
      }

      .cls-50 {
        fill: #737d7e;
      }

      .cls-51 {
        fill: #8db2f4;
      }

      .cls-52 {
        fill: #3e434d;
      }

      .cls-53 {
        fill: #2d3741;
      }

      .cls-54 {
        fill: #354550;
      }

      .cls-55 {
        fill: #07a6ab;
      }

      .cls-56 {
        fill: #0c1623;
      }

      .cls-57 {
        fill: #414951;
      }

      .cls-58 {
        fill: #b7b9bc;
      }

      .cls-59 {
        fill: #4fe5e6;
      }

      .cls-60 {
        fill: #6ab6e4;
      }

      .cls-61 {
        fill: #0e1929;
      }

      .cls-62 {
        fill: #0882a5;
      }

      .cls-63 {
        fill: #79bdf3;
      }

      .cls-64 {
        fill: #36383d;
      }

      .cls-65 {
        fill: #388781;
      }

      .cls-66 {
        fill: #475458;
      }

      .cls-67 {
        fill: #515b6b;
      }

      .cls-68 {
        fill: url(#linear-gradient);
      }

      .cls-69 {
        fill: #545e69;
      }

      .cls-70 {
        fill: #626bcf;
      }

      .cls-71 {
        fill: #96f0f0;
      }

      .cls-72 {
        fill: #161e32;
      }

      .cls-73 {
        fill: #404d58;
      }

      .cls-74 {
        fill: #55a9ee;
      }

      .cls-75 {
        fill: #07090a;
      }

      .cls-76 {
        fill: #434952;
      }

      .cls-77 {
        fill: #212c36;
      }

      .cls-78 {
        fill: #028280;
      }

      .cls-79 {
        fill: #87fbf8;
      }

      .cls-80 {
        fill: #262e38;
      }

      .cls-81 {
        fill: #35485b;
      }

      .cls-82 {
        fill: #7683c3;
      }

      .cls-83 {
        fill: #39464f;
      }

      .cls-84 {
        fill: #586378;
      }

      .cls-85 {
        fill: #687179;
      }

      .cls-86 {
        fill: #cddcfb;
      }

      .cls-87 {
        fill: #485c6e;
      }

      .cls-88 {
        fill: #31c1cb;
      }

      .cls-89 {
        fill: #33424b;
      }

      .cls-90 {
        fill: #536067;
      }

      .cls-91 {
        fill: #78bce6;
      }

      .cls-92 {
        fill: #c2dae9;
      }

      .cls-93 {
        fill: #dde1e2;
      }

      .cls-94 {
        fill: #80869a;
      }

      .cls-95 {
        fill: #5a6870;
      }

      .cls-96 {
        fill: #242b36;
      }

      .cls-97 {
        fill: #03050d;
      }

      .cls-98 {
        fill: #192635;
      }

      .cls-99 {
        fill: #596682;
      }

      .cls-100 {
        fill: #5aaef0;
      }

      .cls-101 {
        fill: #6f7c92;
      }

      .cls-102 {
        fill: #24303b;
      }

      .cls-103 {
        fill: #52d4d7;
      }

      .cls-104 {
        fill: #54626c;
      }

      .cls-105 {
        fill: #1e2934;
      }

      .cls-106 {
        fill: #1ecfd7;
      }

      .cls-107 {
        fill: #424b52;
      }

      .cls-108 {
        fill: #080a11;
      }

      .cls-109 {
        fill: #317f7e;
      }

      .cls-110 {
        fill: #4a5862;
      }

      .cls-111 {
        fill: #7f8690;
      }

      .cls-112 {
        fill: #aac4db;
      }

      .cls-113 {
        fill: #0e1826;
      }

      .cls-114 {
        fill: #2d3642;
      }

      .cls-115 {
        fill: #16c0cd;
      }

      .cls-116 {
        fill: #667a7c;
      }

      .cls-117 {
        fill: #306a6b;
      }

      .cls-118 {
        fill: #8192db;
      }

      .cls-119 {
        fill: #1e2830;
      }

      .cls-120 {
        fill: #696a6f;
      }

      .cls-121 {
        fill: #31373f;
      }

      .cls-122 {
        fill: #027198;
      }

      .cls-123 {
        fill: #727d91;
      }

      .cls-124 {
        fill: #1d2732;
      }

      .cls-125 {
        fill: #5ab8f7;
      }

      .cls-126 {
        fill: #2e333f;
      }

      .cls-127 {
        fill: #05060c;
      }

      .cls-128 {
        fill: #616b79;
      }

      .cls-129 {
        fill: #26323c;
      }

      .cls-130 {
        fill: #a1e7f3;
      }

      .cls-131 {
        fill: #626e74;
      }

      .cls-132 {
        fill: #08a8b7;
      }

      .cls-133 {
        fill: #202125;
      }

      .cls-134 {
        fill: #056d8d;
      }

      .cls-135 {
        fill: #459992;
      }

      .cls-136 {
        fill: #181f2f;
      }

      .cls-137 {
        fill: #353d48;
      }

      .cls-138 {
        fill: #3d464f;
      }

      .cls-139 {
        fill: #3a404a;
      }

      .cls-140 {
        fill: #212d36;
      }

      .cls-141 {
        fill: #2b313d;
      }

      .cls-142 {
        fill: #0d1725;
      }

      .cls-143 {
        fill: #717c84;
      }

      .cls-144 {
        fill: #9bc2e5;
      }

      .cls-145 {
        fill: #0d131c;
      }

      .cls-146 {
        fill: #7d8a98;
      }

      .cls-147 {
        fill: #89c6ed;
      }

      .cls-148 {
        fill: #076f66;
      }

      .cls-149 {
        fill: #364049;
      }

      .cls-150 {
        fill: #313e44;
      }

      .cls-151 {
        fill: #7fafa8;
      }

      .cls-152 {
        fill: #66b3f1;
      }

      .cls-153 {
        fill: #0f1926;
      }

      .cls-154 {
        fill: #8a94a2;
      }

      .cls-155 {
        fill: #74d0cd;
      }

      .cls-156 {
        fill: #262d31;
      }

      .cls-157 {
        fill: #013c38;
      }

      .cls-158 {
        fill: #84b1e0;
      }

      .cls-159 {
        fill: #1a242e;
      }

      .cls-160 {
        fill: #2b363f;
      }

      .cls-161 {
        fill: #222d38;
      }

      .cls-162 {
        fill: #6984e3;
      }

      .cls-163 {
        fill: #090c0d;
      }

      .cls-164 {
        fill: #2b3640;
      }

      .cls-165 {
        fill: #396c68;
      }

      .cls-166 {
        fill: #1e2a34;
      }

      .cls-167 {
        fill: #196064;
      }

      .cls-168 {
        fill: #2a3845;
      }

      .cls-169 {
        fill: #4d5560;
      }

      .cls-170 {
        fill: #050607;
      }

      .cls-171 {
        fill: #202a35;
      }

      .cls-172 {
        fill: #026582;
      }

      .cls-173 {
        fill: #9a9fa0;
      }

      .cls-174 {
        fill: #c0c3c5;
      }

      .cls-175 {
        fill: #9ee9e6;
      }

      .cls-176 {
        fill: #7dbdee;
      }

      .cls-177 {
        fill: #2b3441;
      }

      .cls-178 {
        fill: #79dfe4;
      }

      .cls-179 {
        fill: #969da5;
      }

      .cls-180 {
        fill: #40454e;
      }

      .cls-181 {
        fill: #6d747a;
      }

      .cls-182 {
        fill: #5d666d;
      }

      .cls-183 {
        fill: #82b5ea;
      }

      .cls-184 {
        fill: #4a555d;
      }

      .cls-185 {
        fill: #363d51;
      }

      .cls-186 {
        fill: #366e68;
      }

      .cls-187 {
        fill: #242d38;
      }

      .cls-188 {
        fill: #253039;
      }

      .cls-189 {
        fill: #68b2ec;
      }

      .cls-190 {
        fill: #85898f;
      }

      .cls-191 {
        fill: #23ab9e;
      }

      .cls-192 {
        fill: #6a7488;
      }

      .cls-193 {
        fill: #5db8f4;
      }

      .cls-194 {
        fill: #32d2db;
      }

      .cls-195 {
        fill: #141e29;
      }

      .cls-196 {
        fill: #2a343e;
      }

      .cls-197 {
        fill: #17202b;
      }

      .cls-198 {
        fill: #1d2833;
      }

      .cls-199 {
        fill: #141e2a;
      }

      .cls-200 {
        fill: #8bb8e1;
      }

      .cls-201 {
        fill: #025f7e;
      }

      .cls-202 {
        fill: #404b53;
      }

      .cls-203 {
        fill: #050709;
      }

      .cls-204 {
        fill: #04050a;
      }

      .cls-205 {
        fill: #4d595d;
      }

      .cls-206 {
        fill: #1d2832;
      }

      .cls-207 {
        fill: #03040b;
      }

      .cls-208 {
        fill: #626b72;
      }

      .cls-209 {
        fill: #05060a;
      }

      .cls-210 {
        fill: #475057;
      }

      .cls-211 {
        fill: #1f2a35;
      }

      .cls-212 {
        fill: #34414c;
      }

      .cls-213 {
        fill: #2f3e4e;
      }

      .cls-214 {
        fill: #4ea9ed;
      }

      .cls-215 {
        fill: #485b65;
      }

      .cls-216 {
        fill: #13141a;
      }

      .cls-217 {
        fill: #19232f;
      }

      .cls-218 {
        fill: #798082;
      }

      .cls-219 {
        fill: #151f2b;
      }

      .cls-220 {
        fill: #7386f0;
      }

      .cls-221 {
        fill: #a2a6ac;
      }

      .cls-222 {
        fill: #59647a;
      }

      .cls-223 {
        fill: #b7ddf8;
      }

      .cls-224 {
        fill: #62f2f3;
      }

      .cls-225 {
        fill: #737e8f;
      }

      .cls-226 {
        fill: #404f67;
      }

      .cls-227 {
        fill: #8e959b;
      }

      .cls-228 {
        fill: #929fa0;
      }

      .cls-229 {
        fill: #29343e;
      }

      .cls-230 {
        fill: #5df5f3;
      }

      .cls-231 {
        fill: #034b47;
      }

      .cls-232 {
        fill: #1b928c;
      }
    </style>
    <linearGradient id="linear-gradient" x1="-551.45" y1="747.11" x2="-669.52" y2="902.3" gradientTransform="translate(748 -752)" gradientUnits="userSpaceOnUse">
      <stop offset="0" stop-color="#69757f"/>
      <stop offset=".11" stop-color="#55626c"/>
      <stop offset="1" stop-color="#1f2b34"/>
    </linearGradient>
    <linearGradient id="linear-gradient-2" x1="-533.26" y1="932.77" x2="-559.9" y2="953.89" gradientTransform="translate(748 -752)" gradientUnits="userSpaceOnUse">
      <stop offset="0" stop-color="#00e1fe"/>
      <stop offset="1" stop-color="#0073a2"/>
    </linearGradient>
    <linearGradient id="linear-gradient-3" x1="-370.65" y1="893.73" x2="-463.98" y2="982.78" gradientTransform="translate(748 -752)" gradientUnits="userSpaceOnUse">
      <stop offset="0" stop-color="#1ea2c5"/>
      <stop offset=".07" stop-color="#1192b5"/>
      <stop offset=".67" stop-color="#058ba0"/>
      <stop offset=".91" stop-color="#009795"/>
      <stop offset="1" stop-color="#00b0a6"/>
    </linearGradient>
    <linearGradient id="linear-gradient-4" x1="-447.71" y1="967.31" x2="-513.14" y2="1145.69" gradientTransform="translate(748 -752)" gradientUnits="userSpaceOnUse">
      <stop offset="0" stop-color="#017577"/>
      <stop offset=".47" stop-color="#034e4b"/>
      <stop offset="1" stop-color="#003d39"/>
    </linearGradient>
    <linearGradient id="linear-gradient-5" x1="-499.5" y1="765.45" x2="-479.77" y2="880.78" gradientTransform="translate(748 -752)" gradientUnits="userSpaceOnUse">
      <stop offset="0" stop-color="#666ac7"/>
      <stop offset=".76" stop-color="#3e6fc0"/>
      <stop offset="1" stop-color="#5b9cf4"/>
    </linearGradient>
  </defs>
  <path class="cls-68" d="M180.13,1.03c5.39-.88,11.76-.86,17,0,1.3-.91,4.31-.68,6,0,1.98,0,12.8.91,13.93,2.08,3.74.56,5.13,1.8,4.17,3.72-.85,1.48-1.98,3.03-3.09,4.19l-3,3c-1,1.22-2,2.55-3,4-4.53,8.2-8.2,9.87-12.46,15.45-1.61,1-2.62,2.59-3.49,4.23-.28.33-.81.97-1.05,1.33-1.9,1.85-3.56,3.85-5,6-.71,1.49-1.71,2.83-3,4-4.65,11.29-3.26,4.04-6.24,10.29-1.05,1.63-2.3,2.53-3.76,2.71,1.12.65.79,2.04-.99,4.16l-1.01,1.84-3,5-4,8c-1.66,1.13-3.28,3.69-3,5-1.37,2.38-2.56,5.15-3.91,7.94l-4.35,8.97c-.86,1.77-1.48,3.41-1.74,5.1-2.15,1.96-3.58,4.31-3,5l-2,5c-.18,2.09-.85,3.09-2,3,1.55.03.11,3.45.02,3.28-.81-1.71.3-1.87.67.41l-2.69,5.3-2,5c-2.42,2.83-4.63,1.64-6.63-3.57,1.08,5.54,1.96,11.06,2.63,16.57-2.05,5.54.21,1.71-2,6l-1,6v2c-.95,1.55-1.95,3.55-3,6,.79,1.63-.02,3.59-1,5l1,2c-1.02.93-1.65,2.86-1.91,5.81l-1.09,2.19c.09,1.21.07,2.65,0,4l-.78,1.79c-.14,4.8-1.23,6.67-3.24,5.61-1.3-.88-2.23-2.63-2.97-4.4-.85-1.18-1.85-2.18-3-3-2.68-1.12-6.26-9.58-6.72-10.34l-6.82-11.21c-1.63-2.68-3.36-5.52-4.55-8.35l-3.59-8.5-8.8-21.2c-1.5-3.62-2.47-8.2-3.61-12.01l-2.14-7.14c-1.02-3.39-1.58-7.05-1.77-10.26.54-3.49.21-4.82-1-4-.59-2.37-.95-5.02-1.24-8.01l-.76-7.99c.49-10.74.49-21.52,0-32.33l1-.67c-2-1.37-.98-8.11,1-10,3.8-2.86,8.02-6.03,12.47-8.39l19.78-10.45c1.63-.86,3.55-1.51,5.17-2.1l6.32-2.31,8.12-2.81,8.13-2.9c4.52-1.61,10.03-2.18,14.98-3.02l6.03-1.02c2.63.82,4.96.69,7-.38,3.25-.18,6.64-.62,10-.62Z"/>
  <path class="cls-47" d="M202.13,219c-2.47.72-4.81.72-7,.03l-.62-1.18,6.44-2.99c-3.83-4.31-7.55-8.94-11.16-13.9-4.47-5.35-9.82-8.68-16.05-10l-.61-.93c1.03-7.5,9.84-17.88,18.35-19.59,7.54-1.51,12.63-2,20.66,2.81,3.2,1.92,6.76,5.83,8.4,9.19s2.28,7.51,3.02,11.39c1.94,10.24-5.79,15.84-14.37,22.47-1.9,1.47-5.07,2.02-7.06,2.71Z"/>
  <path class="cls-122" d="M195.13,219.03l-1-.02-4,.02c-.94-.82-1.14-1.54-.62-2.15,1.05-.07,6.36-2.33,6.28-3.13-.3-2.86-7.44-11.33-9.68-13.81-2.19-.05-4.4-1.12-6.63-3.2-3.37-.98-5.4-2.63-6.07-4.94l-.28-1.76c8.26-1.73,19.56,10.7,22.87,18.31,1.96,1.17,5.73,2.96,6.8,5.04,2.49,4.86-8.96,4.5-7.67,5.65Z"/>
  <path class="cls-201" d="M184.1,202.8c4.73,3.99,3.26,9.53-1.96,11.23-5.16-3.8-9.29-9.37-9-16-.04-6.37,11.44.98,11.57,3.4.02.44-.25.9-.61,1.37Z"/>
  <path class="cls-35" d="M186.11,199.93c1.9,1.92,9.36,11,9.3,12.94-.1,3.17-5.82,4.97-8.2,3.94l-1.88-.97c-.95-1.36-.41-2.76,1.6-4.2.77-3.01-.17-5.96-2.83-8.84-.77-1.05-2.35-2.48-3.57-3.1l-5.66-2.88-1.73,1.21.28-6.24,3.61,1.49c3.63,1.5,6.92,3.71,9.09,6.66Z"/>
  <path class="cls-38" d="M144.13,135.03l-1,2c-.48,1.51-.81,3.17-1,5-.41,1.69-1.41,4.41-2,6-2.3-2.09-4.25-11.59-4.46-15.77l-3.8-3.15,7.89.48.98,4.25c.21.93,2.48,1.1,3.38,1.19Z"/>
  <path class="cls-134" d="M190.13,219.03l-2.93-2.22,2.02-.68,3.41-1.14c.78-.26,1.03-3.32.54-4.08l-7.07-10.98c1.19.36,2.5,1.4,3.34,2.52l4.04,5.36c1.36,1.81,4.2,3.61,4.42,6.42.11,1.32-3.28,2.81-4.59,2.83l-2.58.02c-.6,0-.57,1.29-.61,1.95Z"/>
  <path class="cls-172" d="M185.32,215.84c-1.23-.42-2.21-1.09-3.19-1.81.65-5.47,5.06-2,1.96-11.23,1.69.61,3.28,2.04,4.45,3.91,1.69,2.71.93,5.64-1.23,7.46l-1.99,1.67Z"/>
  <path class="cls-90" d="M81.13,45.03l-.04,31.64c-.01.21-1.14,1.61-.96,1.36l-.74-9.1c-.19-2.39-.26-4.86-.26-6.9.9-4.26.87-9.73,0-14v-3c.32-2.66,1.24-2.54,2,0Z"/>
  <path class="cls-93" d="M127.11,194.42c3.26-1.46,1-6.11,4.03-7.4-.11,2.21-.25,4.71-.66,7.18l-1.14,6.95c-1.36-3.39-1.77-4.67-2.23-6.73Z"/>
  <path class="cls-173" d="M221.23,6.83l-4.17-3.72,8.47.09c-.9,1.99-2.5,3.3-4.3,3.64Z"/>
  <path class="cls-216" d="M197.13.03c.87.28.86.62,0,1h-17s.87-.78,1.15-1.03l15.85.03Z"/>
  <path class="cls-131" d="M82.13,35.03c-.31.69-1.01,2.9-1.01,3.94v6.06s-1.99,0-1.99,0v-4l1-5c.45-.37,1.43-.77,2-1Z"/>
  <polygon class="cls-156" points="79.13 62.03 79.13 48.03 80.17 49.07 80.17 60.98 79.13 62.03"/>
  <path class="cls-175" d="M237.13,133.03c.87.28.86.62,0,1l-2.94,1.26-.95.74-2.84-1.28c2.73-1.07,4.68-1.58,6.73-1.72Z"/>
  <path class="cls-205" d="M234.87,259.7c-1.49-1.3-3.13-2.32-4.86-2.67,1.53-1.2,4.22-1.17,6.15.01l-1.28,2.66Z"/>
  <path class="cls-58" d="M134.13,175.03l-1.15,5.86c-.13.65-1.5,2.05-1.85,2.14l.98-6.08c.1-.6.2-1.82.58-1.84l1.44-.08Z"/>
  <path class="cls-190" d="M151.13,256.03c.52-.39,1.46-1.06,2-1.37l2.87-1.61,3.26,2.68-8.14.3Z"/>
  <path class="cls-225" d="M199.67,33.48c-1.15,1.5-2.1,3.12-3.49,4.23.17-1.99,1.54-3.94,3.49-4.23Z"/>
  <path class="cls-128" d="M142.13,142.03c-.4-.15-1.39-1.82-.99-2.35l1.99-2.65,1.23.89-2.23,4.11Z"/>
  <path class="cls-123" d="M195.13,39.03l-4,6c-.31.43-.64.42-1,0l2.02-4.04c.37-.74,2.44-1.89,2.98-1.96Z"/>
  <path class="cls-50" d="M170.13,375.03l4,1.87h-5.68c-.43,0-.28-1.87.11-1.87h1.57Z"/>
  <path class="cls-110" d="M83.13,98.03l-1-4,2.08-.99c-.15,2.04-.45,4.13-1.08,4.99Z"/>
  <path class="cls-101" d="M180.89,59.32c-.52,1.09-1.12,2.4-1.72,3.48-1.44,1.53-2.33,1.4-2.04-.77.27-1.15,2.73-2.25,3.76-2.71Z"/>
  <path class="cls-221" d="M137.13,162.03l-1.07,4.1c-.27,1.03-.68,2.25-.93,2.9-.66.92-.99.59-1-1l1.1-4.05c.13-.48.07-1.88.45-1.9l1.45-.06Z"/>
  <path class="cls-192" d="M168.13,81.03c-.81,1.62-2.12,3.47-3,5-.28-.14-.94-.47-.95-.49.3.79,1.64-5.45,3.95-4.51Z"/>
  <path class="cls-41" d="M172.13,73.03c-.15-1.62,1.32-3.91,3-5-.4,1.59-1.51,4.17-3,5Z"/>
  <path class="cls-227" d="M202.13,219c-2.48.86-5.8,1.99-8,0l1,.02,7-.03Z"/>
  <path class="cls-84" d="M155.13,108.03l-3,5c-.43-.14-1.02-.2-.9-.45l.86-1.88c.48-1.05,2.01-2.49,3.04-2.67Z"/>
  <path class="cls-37" d="M191.13,45.03c-1.13,1.7-2.34,3.43-4,4,.69-1.68,1.44-2.99,3-4h1Z"/>
  <path class="cls-67" d="M150.13,122.03l-1.31,2.7-1.65-.17.96-3.52c.91-1.71,1.58-1.38,2,1Z"/>
  <path class="cls-146" d="M216.13,14.03c-1.2,1.44-2.56,2.83-4,4-.41-1.38,1.36-3.05,3-4,.3-.53.64-.52,1,0Z"/>
  <path class="cls-94" d="M179.17,62.8c-.63,1.14-2.01,2.57-3.02,3.39l.99-4.16,2.04.77Z"/>
  <path class="cls-154" d="M218.13,11.03c-.53.98-1.31,2.17-2,3h-1l2.09-3.79.91.79Z"/>
  <path class="cls-19" d="M170.13,1.65c-.12.46-.24,1.27-.65,1.31l-2.55.22c-.96.08-3.41-.69-3.8-1.15l7-.38Z"/>
  <path class="cls-179" d="M137.13,160.03c-1.17-1.48.17-4.4,1-6-.1,2.02-.42,4.14-1,6Z"/>
  <path class="cls-73" d="M124.13,190.03c-1.31-.28-2.25-1.63-3-3l1.33-.96,1.67,3.96Z"/>
  <path class="cls-222" d="M144.13,135.03c-.17-1.96.38-4.2,2-5-.1,1.82-.79,3.71-2,5Z"/>
  <polygon class="cls-108" points="203.13 1.03 197.13 1.03 197.13 .03 202.22 .03 203.13 1.03"/>
  <path class="cls-130" d="M372.13,118.03l1-1,2.15,1.01c.49.23-2,1.32-2.35.91l-.8-.92Z"/>
  <path class="cls-174" d="M135.13,169.03c.02,1.56-.71,3.39-2,4l1-5,1,1Z"/>
  <path class="cls-99" d="M150.13,122.03l-2-1c.24-.88,1.67-2.17,2-3v4Z"/>
  <path class="cls-163" d="M79.13,41.03c0-1.54-.02-4.16,1-5,.01,1.68-.29,3.89-1,5Z"/>
  <g>
    <path class="cls-46" d="M278.13,128.03c13.81-.84,28.17-.84,42,0l10,1,5,1c8.86.68,10.09,2.22,19.89,4.17,2.64.53,5.9.97,8.12,1.82l12.48,4.79,6.34,2.58c1.84.75,3.95,1.89,5.98,2.91,1.26,4.5,2.17,8.6,2.2,12.73.54,1.92.87,3.92,1,6l.86,3.29c.51,1.95.98,4,1.03,5.71-.61,2.29-.62,4.73.11,7,.58.6.91,1.6,1,3-.46,1.43-1,3.54-1,5,.82,5.84.8,12.12,0,18,0,3.69.12,7.89-.28,11.88l-.72,7.12-1,5-1.1,5.03c-.11.49-.67,1.56-.9,1.97l-3.81,13.24-1.21-.2-.6-.32c-2.82,9.19-5.95,18.28-9.38,27.28-3.09,5.48-8.73,17.57-14,22-.53,1.5-1.64,2.27-3,3l-1.79,4.02c-1.17,1.08-2.58,2.23-3.21,2.98-.66,1.47-1.32.8-2-2l-5.52-19.43c-2.67-9.4-6.05-18.13-9.81-27.17l-3.86-9.28c-1.5-3.59-3.31-7.35-5.25-10.69l-3.35-5.74c-4.48-7.69-9.48-14.98-14.7-22.22l-7.15-9.91c-3.52-4.88-15.61-19.67-19.74-24.17-7.41-8.07-14.98-15.6-23.06-22.91-3.87-3.51-8.39-6.41-12.4-9.66l-5.48-4.44c-2.52-2.04-4.76-4.1-6.56-6.38-1.58-1.42,2.43-2.52,3.89-2.01,2.62-.73,4.95-1.73,7-3h2c1.43.38,2.56.29,4,0,.5-.29,1.45-.89,2-1,4.31-.03,8.24-.28,11.76-.76l.24-1.24c2.3-.67,3.97-.33,5,1,3.12.63,4.12.63,3,0-.87-.28-.86-.62,0-1,.29-.66.63-.64,1,0,1.01-1.33,4.39-1.65,5,0Z"/>
    <path class="cls-45" d="M288.05,215.25l5.02,7.68,8.85,14.3c1.27,2.05,2.39,4,3.21,5.79l3.21,4c.72,1.9,1.75,4.24,2.79,6l5,13c2.19,3.88,3.74,8.41,4.86,13.16l2.69,11.41,2.34,7.7c.77,2.53,2.08,14.65,2.12,16.74l1.89,9c-.04.75.06,2.18.11,3,.52,2.06-.27,2.95-2,4-.54.24-1.56.65-2,1-1.72,2.57-4.05,4.57-7,6-1.03,1.5-2.86,3.26-4.63,4.39l-5.55,3.53c-1.12.71-3,1.51-3.82,2.08-4.67,2.64-9.35,5.48-14.02,8.5l-8.98,3.5c1.05.59.39,1.26-2,2-.41.41-1.43.79-2,1l-5,2c-3.97,2.23-8.47,4.24-13,5l-8,2c-2.56.89-5.23,1.56-8,2l-3,1c-3.19.92-6.64,1.58-10,2-2.19-.65-4.91-.47-8.15.53-13.18.07-25.46-.11-36.85-.53.87.28.86.62,0,1-9.32,0-6.16-1.13-12-1.13-2.36-.09-3.7-.71-4-1.87l3.52-3.49,5.6-5.37c2.03-1.94,4.39-3.8,6.27-5.7l8.48-8.56,9.18-8.99c3.97-3.88,4.63-8.61,8.96-10.89,1.28-.58,2.28-1.58,3-3,1.53-2.67,4.12-6.03,6.29-8.61,3.28-3.89,5.4-7.92,7.87-12.36,4.8-8.62,9.77-17,13.61-26.15l4.14-9.88,4.17-10.12c1.93-4.68,3.23-9.38,4.69-14.22l3.04-10.01c1.5-4.93,3.08-9.81,4.12-14.82l3.07-14.84c2-4.84,4.66-7.92,10.38-6.28,3.55,4.89,7.4,9.39,11.54,13.51Z"/>
    <path class="cls-78" d="M275.18,197.61c4.43,5.76,8.91,11.59,12.87,17.64.52.12-1.92-.27-2.14-.52l-10.04-11.42c-6.78-.32-7.37,3.41-9.74,4.71l2-9,1.33-.15c1.32-3.8,2.81-3.86,5.71-1.26Z"/>
    <path class="cls-55" d="M384.11,251.07c.58.22,1.03.44,1.02.63-.22,4.34-3.67,12.1-5.74,16.06-.43,1.21-1.14,2.95-2.01,4.51l-3.25,5.76c.32-1.98.8-4.33,1.44-6.57l3.15-11.07c1.41-4.96,3.23-5.05,5.12-13.37.18,1.46.41,3.22.26,4.04Z"/>
    <path class="cls-132" d="M379.39,267.75l1.64-4.61c1.05-2.93,2.54-9.03,3.07-12.07-.01.02.39-.56.91-1.31.89-3.42,2.67-9.05,4.11-11.73.01,2.66-.31,5.84-1.19,8.59l-4.46,13.8c-.93,2.88-2.1,5.67-4.09,7.33Z"/>
    <path class="cls-157" d="M231.13,377.03l-8,1c-6.71.32-13.37.65-20,1h-1l-5-1h-3c-2.7-.38-5.36-.71-8-1,0,.02.13-.52.32-1.24l10.73,1.1,24.14.24c8.33.08,8.1-4.14,9.81-.11Z"/>
    <path class="cls-231" d="M305.13,348.03l-12.85,8.96c-1.48,1.03-3.92,1.73-5.15,2.04-1.97,1.48-3.64,1.82-5,1,7.7-4.66,13.03-5.38,20.98-12.25.35-.19,2.05.17,2.02.25Z"/>
    <path class="cls-230" d="M280.13,127.03c10.42-.83,22.25-.84,33,0h5.02c.5,0,1.61.71,1.98,1h-42c-.73-1.46.72-1.71,2-1Z"/>
    <path class="cls-79" d="M286.13,126.03c2.76-.88,6.34-.82,9,0l16.84-.02c.26.24,1.19,1.05,1.16,1.02h-33c-.87-.28-.86-.62,0-1h6Z"/>
    <path class="cls-116" d="M223.13,378.03c.13.03-1.78,1.01-2.37,1.01h-17.63c-.06.04.95-.8,1.21-1.05l18.79.03Z"/>
    <path class="cls-15" d="M263.89,129.26c-.08.43-.43,1.38-.87,1.35l-2.44-.13c-4.9-.27-8.36,1.69-8.45-.45l8.71-1.68c.64-.12,2.88.85,3.05.92Z"/>
    <path class="cls-88" d="M393.13,207.03v-18c.03-.3,1.02,1.65,1.02,2.19v13.65c0,.5-.99,2.46-1.02,2.16Z"/>
    <path class="cls-148" d="M316.13,266.03l-2.1-4.03c-1.47-2.82-2.48-6.13-2.9-8.97,1.66,2.8,5.52,8.83,5,13Z"/>
    <path class="cls-191" d="M272.13,194.03c.97.9,2.16,2.44,3.05,3.59-1.94-.71-4.14-.17-5.71,1.26-1-2.52-.96-6.63,2.67-4.85Z"/>
    <path class="cls-25" d="M272.13,194.03l-1.9.19-.77,4.65-.85,2.36-.48-2.2.25-6.3c2.21.56,3.21.8,3.75,1.3Z"/>
    <path class="cls-232" d="M319.13,338.03c-.12-.77,1.85-1.98,3.13-2.87l3.87-3.13c-.51,3.23-3.79,5.53-7,6Z"/>
    <path class="cls-135" d="M330.02,324.03c-.41-.33-1.76-2.29-1.77-3.13l-.12-5.87c1.93,1.87,2.01,6.64,1.89,9Z"/>
    <path class="cls-31" d="M237.13,134.03v-1c.66-.25,1.87-.65,2.9-.92l4.1-1.08-.12,1.38c-.03.36-1.28.68-1.67.74l-5.21.88Z"/>
    <path class="cls-117" d="M260.13,370.03c-1.6,1.79-4.46,2.18-7,2h-1c2.09-1.87,5.29-1.54,8-2Z"/>
    <path class="cls-59" d="M268.13,127.03c1.55.13,2.88.46,4,1v1c-.58.49-1.58.49-3,0l-5-1c.83-.63,2.65-1,4-1Z"/>
    <path class="cls-165" d="M252.13,372.03c.24-.04.72-.02,1,0-1.86,1.46-4.61,1.52-7,2h-2c-.05-.07,1.54-.95,2.08-1.04l5.92-.96Z"/>
    <path class="cls-178" d="M280.13,126.03v1c-.61,0-1.68.66-2,1-1.57,0-3.66-.7-5,0-.87-.28-.86-.62,0-1,2-.92,4.55-1,7-1Z"/>
    <path class="cls-12" d="M330.13,129.03l-7.92.03c-.53,0-1.71-.75-2.08-1.03l7.06-.02c.72,0,2.6.78,2.94,1.02Z"/>
    <path class="cls-30" d="M287.13,359.03c-1.46,2.04-4.37,2.87-7,3l2-2,5-1Z"/>
    <polygon class="cls-186" points="194.13 378.03 186.13 378.03 186.13 377.03 193.22 376.99 194.13 378.03"/>
    <path class="cls-115" d="M393.13,178.03c.63.9.9,2.26,0,3-1.46-1.59-1.42-5.26-.11-7l.11,4Z"/>
    <path class="cls-151" d="M328.13,331.03l2-4c.34.56,1.43,2.79.62,3.08l-2.62.92Z"/>
    <path class="cls-42" d="M250.13,131.03l-1.58,1.11c-.57.4-2.35-.75-2.42-1.11,1.2-.61,2.83-.62,4,0Z"/>
    <path class="cls-109" d="M278.13,363.03c-1.28,1.21-3.18,1.91-5,2,1.29-1.2,3.19-1.89,5-2Z"/>
    <path class="cls-65" d="M308.35,247.03c-1.33-.85-2.48-2.4-3.21-4,1.84.18,2.5,2.14,3.21,4Z"/>
    <path class="cls-194" d="M391.13,165.03c-.79-1.72-.99-3.88-1-6l1.05.9-.05,5.1Z"/>
    <path class="cls-155" d="M394.13,184.03c-.42-.48-1-2.16-1-3v-3l1.06.9-.06,5.1Z"/>
    <path class="cls-167" d="M212.13,332.03l3-3c-.43.75-.88,1.91-1.81,3.89l-1.19-.89Z"/>
    <polygon class="cls-29" points="352.13 310.03 350.28 312.24 350.13 308.03 352.13 310.03"/>
    <path class="cls-20" d="M357.13,303.03c.44-.99,2.11-2.25,3-3-.08.65-.27,2.33-.96,2.5l-2.04.5Z"/>
    <path class="cls-71" d="M273.13,127.03v1h-1c-1.27,0-3.21-.43-4-1h5Z"/>
    <path class="cls-106" d="M335.13,130.03c-1.72-.03-3.57-.34-5-1,1.7.03,3.61.34,5,1Z"/>
    <path class="cls-103" d="M391.13,231.03c-.01-1.68.29-3.89,1-5-.18,1.78-.48,3.49-1,5Z"/>
    <path class="cls-10" d="M244.13,374.03h2l-5,1c.48-.42,2.16-1,3-1Z"/>
    <path class="cls-228" d="M202.13,379.03c-1.7,0-3.87-.29-5-1,1.69,0,3.88.29,5,1Z"/>
    <path class="cls-62" d="M272.13,129.03c.62,0,1.73.27,3.1.61-2.03.5-4.35.28-6.1-.61h3Z"/>
  </g>
  <g>
    <path class="cls-44" d="M249.13,11.82c3.76-.61,7.76-.33,12,.84l16.59,5.98,9.41,3.38c1.66,1.35,1.66,2.02,0,2-.09.51-.2.91-.33.93-7.01.58-2.25-1.15,2.33.07-.12-.97.88-.97,3,0,8.12,4.03,15.56,8.49,22.9,14.04.87,1.24,1.65,2.36,3.1,2.96,6.59,3.31-1.72-.08,7,4.78,1.24,1.27,1.91,2.67,2,4.22,7.18,4.57,13.01,11.2,18,18-.11-1.06.62-1.09,2.19-.09.68.62,1.52,2.22,1.81,3.09.76,1.6,1.68,2.21,3.2,3l9.67,15.82c1.62,2.65,3.03,4.97,3.13,7.18,1.15,1.3,1.82,2.63,2,4,.96,1.08,1.68,2.42,2.14,4l1.36,2.56c1.01,1.9,2.27,4.63,2.38,6.44-.31,2.17-2.04,2.06-3.88,1.87-.77-.26-2-.67-2.7-.96l-4.3-.91-18-3.06c-5.97-1.01-12.73-1.75-18-1.94l-5-1h-9c-2.7-.38-5.37-.71-8-1-1.41.53-3.07.86-5,1h-2c-2,.78-5.11.83-7,0-1.44.65-3.11.99-5,1-2.42.49-7.36,1-10,1-1.92-.72-4.07-.73-6,0-.36.73-1.53.69-2,0-1.52.38-3.19,1.04-5,2h-2c-2.75-.06-5.42-.06-8,0-2.6,1.13-5.6,1.8-9,2-1.54.53-3.2.86-5,1h-2l-6,2c-1.58.54-3.51.77-5,0-1.85,1.43-4.52,2.43-8,3l-4,1-4,1c-1.01.53-2.93,1.41-4.22,1.7l-5.78,1.3c-1.7,1.06-3.37,1.39-5,1-1.03.98-2.36,1.64-4,2-.83.91-2.83,1.53-4,1-.95,1.06-2.28,1.73-4,2l-4,2-6.03,1.84-9.44,1.28-.53-2.12c.26-1.03,1.06-2.98,1.62-4.33l2.58-6.2,4.96-12.45c.57-1.44,2.1-3.7,2.63-5.2l1.63-4.6,14.53-25.19c1.22-2.12,2.71-4.1,4.01-5.95l12.01-17.23c.94-1.35,2.83-3.05,4.03-3.84l4-5c.34-1.14,2.58-2.65,3.38-3.64,2.35-2.94,4.47-6.12,7.2-8.77l7.54-7.35,5-5.22,2.89-3.01c1.75-.4,3.29-1.47,4.61-3.19.37-.59,1.24-1.6,1.74-2.17,1.69-1.35,2.57-1.3,2.65.15Z"/>
    <path class="cls-162" d="M344.13,66.03c1.24,1.27,1.57,2.27,1,3-1,.04-2.4-1.73-3.23-2.62l-11.16-11.92c-1.07-1.15-2.97-2.45-3.61-3.45.28-.87.62-.86,1,0,6.31,3.65,12.09,8.85,16,15Z"/>
    <path class="cls-21" d="M172.1,135.87c-.83.81-1.87,1.46-2.97,2.04-2.28.55-4.57,1.24-6.88,2.08l-1.12-.96,1-4c6.02,2.25,7.71-.88,9.97.84Z"/>
    <path class="cls-26" d="M261.13,12.66c-3.15.51-9.03-.26-12-.84-1.35-1.51,1.2-2.36,2.97-2.1l9.03,2.94Z"/>
    <path class="cls-92" d="M169.13,137.91l-5.86,3.07c-.34.18-2.22,0-2.23-.39s-.01-1.19.08-1.57c2.09-.13,3.99-.66,6.73-1.69l1.27.57Z"/>
    <path class="cls-86" d="M252.1,9.71l-2.97,2.1c-.65-.13-1.93-.13-2.65-.15.79-.92,1.74-1.97,2.43-2.62.58-.54,2.43.42,3.18.67Z"/>
    <path class="cls-4" d="M226.13,119.03c-2.42,1.17-5.26,1.84-8,2h-1c.37-.29,1.84-1.13,2.6-1.36l5.4-1.64c.65.13,1.08.24,1,1Z"/>
    <path class="cls-214" d="M252.13,113.03c.87.28.86.62,0,1-1.72.79-3.9,1-6,1-.91.59-2.25.9-3,0-.04-.08,1.44-.73,1.93-.82l7.07-1.18Z"/>
    <path class="cls-74" d="M260.13,113.03l-8,1v-1l4.56-.77c.93-.16,2.82.29,3.44.77Z"/>
    <path class="cls-82" d="M292.13,25.03h-3c-1.22.24-2.31.41-2-1v-2c1.41.51,3.69,2.35,5,3Z"/>
    <path class="cls-16" d="M244.75,13.83l-1.84,2.92c-.15.24-1.06,1.08-1.31.96l-1.46-.68c1.25-1.3,2.83-2.38,4.61-3.19Z"/>
    <path class="cls-224" d="M295.13,126.03h-9c-1.83-1.48,10.83-1.48,9,0Z"/>
    <path class="cls-220" d="M210.13,50.03c.42-2.04,2.1-3.87,4-5-.45,2.1-2.11,3.77-4,5Z"/>
    <path class="cls-63" d="M312.13,109.03h-8c-.87-.28-.86-.62,0-1l7.06-.04.94,1.04Z"/>
    <path class="cls-22" d="M243.13,115.03h3l-.94,1.03-7.06-.03c1.12-.71,3.31-1,5-1Z"/>
    <path class="cls-3" d="M373.13,117.03c1.05,1.11.5,1.48-1,1l-3-1.13,3.88-1.87.12,2Z"/>
    <path class="cls-60" d="M236.13,116.03c-.68,1.65-3.05,2.22-5,2h-1c1.5-1.09,4.05-2,6-2Z"/>
    <path class="cls-158" d="M190.13,129.03h1c-1.28,1.18-3.19,1.88-5,2-.73-.29-.72-.62,0-1,.94-.47,2.93-.9,4-1Z"/>
    <path class="cls-24" d="M297.13,109.03l-.91,1.01h-6.09c-.87-.29-.86-.62,0-1.01h7Z"/>
    <path class="cls-144" d="M182.13,132.03h1c-1.56.77-3.3,1.46-5,2,.77-1.33,2.38-2,4-2Z"/>
    <path class="cls-200" d="M368.13,102.03c-.29.74-.62.72-1,0-.51-1.04-1.95-2.85-2-4,1.1.79,2.61,2.63,3,4Z"/>
    <path class="cls-9" d="M328.13,51.03h-1c-.78-1.23-1.53-2.88-2-4.22,1.41.78,2.73,2.73,3,4.22Z"/>
    <path class="cls-13" d="M199.13,126.03c-1.18,1.2-3.18,1.88-5,2-.87-.28-.86-.62,0-1l5-1Z"/>
    <path class="cls-125" d="M275.13,111.03h-3c-1.17.43-2.17.43-3,0,1.22-1.44,4.78-1.44,6,0Z"/>
    <path class="cls-193" d="M267.13,111.03c.87.28.86.62,0,1-1.58.11-3.48.52-5,1l.13-1.99h4.87Z"/>
    <path class="cls-100" d="M230.13,118.03h1c-1.39.63-3.33.93-5,1l-1-1h5Z"/>
    <path class="cls-18" d="M366.44,115.94c-1.46-.05-3.1-.35-4.3-.91,1.73.18,3.24.48,4.3.91Z"/>
    <path class="cls-51" d="M352.34,75.03l-2.24-.47c-.71-.15-.74-1.83-.96-2.53.96.67,2.62,2.05,3.2,3Z"/>
    <path class="cls-91" d="M269.13,111.03h3c-1.17.65-3.27.88-5,1v-1h2Z"/>
    <path class="cls-189" d="M217.13,121.03h1l-4,1h-1c.79-.58,2.72-1,4-1Z"/>
    <path class="cls-176" d="M213.13,122.03c.25-.01.71,0,1,0-1.56.39-3.26.76-5,1,1.08-.56,2.67-.93,4-1Z"/>
    <path class="cls-223" d="M326.13,110.03c-1.72-.06-3.85-.32-5-1,1.69,0,3.88.29,5,1Z"/>
    <path class="cls-2" d="M290.13,109.03v1h-5c1.27-.26,3.56-1,5-1Z"/>
    <path class="cls-183" d="M194.13,128.03l-3,1c-.31,0-.76-.02-1,0,.92-.62,2.9-1.78,4-2v1Z"/>
    <path class="cls-152" d="M304.13,108.03v1h-5c1.13-.71,3.3-.99,5-1Z"/>
    <polygon class="cls-112" points="347.32 68.94 345.13 69.03 344.13 66.03 347.32 68.94"/>
    <path class="cls-147" d="M369.27,106.03c-.74-1.13-1.53-2.76-2.14-4h1l1.14,4Z"/>
    <path class="cls-118" d="M318.13,42.03c-.47-.23-1.87,0-2.07-.49l-1.03-2.47c1.1.83,2.22,1.91,3.1,2.96Z"/>
    <polygon class="cls-7" points="186.13 131.03 183.13 132.03 182.13 132.03 186.13 130.03 186.13 131.03"/>
    <path class="cls-70" d="M287.13,24.03l2,1c-.24.29-1.95,1.02-2.52.79l-3.65-1.45,4.18-.35Z"/>
  </g>
  <g>
    <path class="cls-129" d="M110.13,212.03c1.24-.18,2.36.96,3.36,3.43,2.17,3.52,4.81,6.59,7.93,9.21l.58,2.36,4.44,2.63c3.07,1.88,4,3.32,2.8,4.32-.05.89-.42,1.45-1.2,1.3-3.33-.63-12.68-2.64-14.93-4.18l-13.32-21.1c-2.97-4.95-5.98-6.58-9.06-4.89-2.02,1.16-4.03.42-6.02-2.23-2.83,1.02-5.01.46-6.54-1.67-.28.51-.6.98-1.04,1.25-.61.39-5.1-1.4-6.2-1.9-1.44-.66-14.95-9.88-16.31-11.07-2.47-3.86-5.53-7.2-9.17-10.02-3-5.14-6.76-9.09-11.28-11.84-6.07-6.65-12.36-12.44-21.53-13.88-1.77,2.15-3.31,4.26-4.62,6.34-1.61,5.42-3.47,6.85-5.58,4.28l-.31-4.34c.94-1.66,1.19-3.22,1.06-5.08l-.06-1.92c.28-.77.77-1.51,1.52-1.51,3.12-.02,6.22-3.66,7.99-6.99,9.18-2.89,19.83.65,23.94,9.96l3.59,1.01c6.31,7.44,13.3,14.21,20.94,20.3,4.03,5.9,10.45,10.56,17.23,12.85,4.62-.53,13.12,3.12,17.18,5.85,7.71,5.18,11.01,9.41,14.61,17.53Z"/>
    <path class="cls-142" d="M109.13,333.35l2.9.71c12.14,8.36,28.47,15.3,43.51,13.29,3.96.34,8.46.77,6.1,5.41-1.3,2.56-8.75,8.58-11.35,7.22-1.86.24-2.62-1.26-2.28-4.5-17.38-1.05-34.2-9.43-47.95-20.04-6-.94-11.58-3.65-16.74-8.13-5.93-.2-11.14-2.88-15.63-8.03-2.08-1.46-3.23-.18-2.02,1.7,2.33,3.63,20.18,19.76,24.4,21.98l7.41,2c1.54,3.25,4.29,4.41,8.26,3.48,3.38,2.44,6.48,5.17,9.3,8.21,9.11,1.4,18.03,3.54,26.78,6.43l1.43,2.07.05,1.15c-2.61,1.52-5.34,2.81-8.18,3.86-1.63-.21-3.52-.73-5-1.14l-1-1c-4.43-1.72-9.03-3.54-13.8-5.45,1.25.35.85.5-1.2.45l-6.32-2.75c-5.77-2.51-10.91-5.91-15.68-9.25-1.65-1.82-3.65-3.16-6-4-1.74-.59-3.5-1.7-4.99-2.96-2.2-1.37-2.86-2.6-1.97-3.69-10.86-7.14-27.69-20.31-32-32.86-.32-.94-.02-1.75.76-2.45.11-.88.52-1.96,1.29-1.98,8.87-.17,15.76,2.65,22.35,8.6,12.47,6.02,24.75,12.44,36.84,19.27l.73,2.39Z"/>
    <path class="cls-159" d="M73.13,260.88c7.3,4.71,14.47,8.14,23.16,9.36,6.2,3.01,10.96,5.2,18.05,4.61,4.84-.04,7.74,1.37,8.7,4.25,6.16.09,11.24,2.99,15.25,8.71,6.09.6,12.04,2.37,17.84,5.31,5.93.36,11.77.73,17.52,1.12,1.55,1.41,3.85,1.82,6.89,1.23,7.61,2.09,13.5,2.52,21.05-.49,6.1-1.74,8.57,1.34,7.41,9.25,1.61.32.18,2.75-.88,3.78-.46,1.99-2.8,5.11-4,7-1.3,1.24-1.78,1.42-1.53-.45-1.33-1.24-.9-3.16,1.3-5.76l-2.93-3.45c-3.47,2.32-7.1,2.68-11.31,3.03-5.78.48-15.21.12-19.73-3.17-8.67,1.16-19.1-.69-27.3-4.31-3.48,1.82-5.89,1.57-8.46-1.49-6.38-2.14-12.52-5.29-18.43-9.47-6.81-.88-9.97-3.78-9.48-8.68-6.25-2.32-12.47-4.7-18.68-7.13-4.72-2-9.44-4.02-14.12-6.14-.64-.29-.63-1.08-.32-1.92-3.71-1.08-13.41-4.34-6.32-6.93l6.31,1.73Z"/>
    <path class="cls-53" d="M99.95,186.83c2.05,1.99,3.7,4.96,5.29,7.36.24.92.03,1.66-.71,2.19-7.88-6.49-15.86-12.86-23.94-19.1-2.52-2.44-5.91-6.5-7.38-9.3-10.4-3.34-16.14-12.55-21.27-21.3l-4.49-2.41c-2.27-6.12-14.59-14.66-20.33-16.1-2.52-.63-10.25,5.54-11.86,7.86l-2.37-1.02c-1.42-2.07.2-3.72,2.14-5.02-3-.78.1-8.51,3.07-8.03,1.89-2.22,3.36-4.73,4.4-7.53,6.67-3.94,15.21.85,20.98,5,7.15,5.14,13.91,12.33,19,19.51l5.9,6.36c2.48,8.67,8.15,14.51,14.79,20.04,5.83,6.94,11.42,14.11,16.79,21.51Z"/>
    <path class="cls-1" d="M93.13,173.03l3.93,7.3c1.12,2.08,2.14,4.53,2.89,6.5-2.95-2.87-6.42-5.89-9.25-9.2l-5.14-6.01c-1.47-1.72-3.29-4.56-4.73-5.82l-4.58-4c-4.52-3.95-7.64-9.59-9.54-15.46-7.19-6.87-8.71-10.39-13.61-16.2-1.42-1.68-5.15-3.42-6.78-5.14-8.46-8.98-3.12-1.13-12.98-9.64-2.06-.36-6.12-.3-9.03-.2l-3.06,5.02c-.48.78-2.41,1.76-3.17,1.78-3.15-1.38.04-8.9,3.02-10.01-.57-3.76,9.74-8.79,13.42-9.78,6.87-1.84,8.79-.47,12.69,5.35,10.65,5.39,17.94,13.04,21.86,22.94,2.72,9.39,7,17.82,12.85,25.29,3.2,6.39,6.27,12.23,11.19,17.28Z"/>
    <path class="cls-161" d="M55.16,196.95c5.05,1.54,7.1,3.68,6.17,6.44,5.61,4.7,11.95,8.82,19.02,12.35,2.49,1.07,5.26,1.97,8.3,2.69,2.96,3.15,5.55,6.79,7.75,10.93,5.72,2.48,9.6,5.68,12.09,11.46.79,1.85,2.17,8.3-.38,8.9-.52,1.35-2.18,1.78-4.98,1.29h-1c-1.11-.81-2.44-1.48-4-2-2.39-1.92-2.51-4.77-.36-8.57-5.39-4.94-10.64-9.98-15.76-15.13-2.96.02-5.92-1.1-8.89-3.36l-6.53-2.46c-8.16-6.69-16.19-13.54-24.09-20.55-.98-4.15-3.56-7.16-7.76-9.03-6.41-8.72-14.07-15.75-22.98-21.09l-3.19,3.18c-1.8,3.34-5.05,6.32-6.07,1.27-1.05-.43-1.1-1.49-.36-2.27.5-2.05,1.69-3.69,3.56-4.91,1.13-5.13,3.44-10.98,9.75-8.36,1.94.81,12.99,9.31,15.21,11.16,3.47,2.9,5.85,5.33,8.87,8.67,4.46,6.9,9.24,12.73,16.2,17.16l-.56,2.2Z"/>
    <path class="cls-105" d="M44.16,209c1.51-1.23,2.07-.63,1.02,1.05,3.68,3.77,7.9,6.96,12.68,9.58-.46,2.03-1.45,3.95-2.97,5.77,5.92,4.78,6.97,7.65,3.15,8.59,1.21,1.4.64,1.79-1.04,1.05l-1.8-1.08c-1.61-1.23-2.95-2.18-5.07-1.92-5.55-2.82-11.03-5.84-16.72-9.22l-7.17-4.25c-3.64-2.16-10-6.95-13.11-9.53-1.64-1.42-1.97-2.42-1-3q1.48-3.16,0,0c-.6,1.5-1.72.34-2.14-1.01-2.3-1.06-4.59-2.4-6.86-4.02-1.59-.72-3.17-2.93-3.13-4.59l.13-6.38,1.73-8.3c4.63-3.71,9.19-4.69,13.7-2.94,8.44,8.48,16.29,17.56,23.55,27.23l5.06,2.98Z"/>
    <path class="cls-43" d="M147.13,334.9c.75.61,1.37,1.68.83,2.21-3.07,3.02-11.06-.25-13.79-3.03-1.73,1.34-3.96,2-6.12,1.04-.2.81-.64,1.34-1.41,1.54-16.97-8.39-33.92-16.93-50.85-25.64-3.78-2.1-7.88-3.9-12.31-5.4-10.62-9.49-21.46-18.67-32.53-27.53l-4.87-5.94c-2.03.65-3.63-1-4.8-4.94l-1.11-.18c-1.35.38-2.85-3.42-3.03-4.99-.54-.85-1.1-1.89-1.69-3.14l-.09-.9c-.87-1.68-.89-3.08-.06-4.19,1.11-4.96,11.34.63,13.96,3.66,6.08,13.02,18.67,24.41,29.94,33.2,6.31,4.92,13.78,10.13,21.39,12.13,5.71,6.57,11.93,10.27,20.65,10.59,7.55,5.17,15.47,9.44,23.78,12.79l4.7-.05c4.98,3.41,10.25,5.69,15.83,6.81l1.6,1.96Z"/>
    <path class="cls-32" d="M82.13,151.03l3,7.88c1.41,1.47,2.12,3.03,2.15,4.66.59.69,1.28,1.51,2.08,2.46l3.77,7c-1.54-.36-3.26-1.87-4.35-3.54l-5.95-9.12c-2.05-3.14-4.43-6.12-6.86-9.29-2.81-3.64-3.88-8.66-5.77-13.03l-3.68-8.54-3.16-6.94-4.2-3.61c-2.48-2.14-4.98-4.17-7.6-6.17-2.04-1.56-5.47-3.1-6.77-4.97s-2.38-3.71-3.64-4.2-4.58-.19-5.84.4l-8.04,3.78c-1.75.82-4.46,3.1-6.14,4.15-1.44,2.68-3.45,4.39-4.99,1.08l2-4,2.34-1.64c3.13-4.52,5.93-9.15,8.4-13.9l2.32-.68c10.93-12.22,28.25,2.43,29.87,15.42,5.23,7.45,9.11,15.48,11.63,24.09,2.43,6.81,5.58,13.04,9.44,18.7Z"/>
    <path class="cls-77" d="M98.13,249.03c-.47,0-1.36-.1-1.87-.13-.99-.56-1.7-1.18-2.13-1.87-.6.32-1.11.14-1.7-.08-1.45-.55-9.75-3.93-10.08-4.37-.8-1.05-1.43-1.95-1.21-3.33,1.54-2.37,1.88-4.49,1.04-6.37-9.33-4.32-17.54-9.98-24.64-16.98l-5.8-3.2c-11.34-10.2-21.88-21.46-31.62-33.77l-2.19.38c-2.04-4.12-4.47-5.79-7.3-5.01-1.28,3.73-5.69,8.16-8.22,3.65-1.03-.83-.96-3.76.08-4.64l2.19.73c.64.21,2.24-1.48,2.59-2.07l3.09-5.1c3.63-1.5,15.99,10.23,18.13,12.79l5.57,6.66c5.46,6.53,8.27,4.05,8.58,7.95.37,4.65,4.29,4.78,6.25,7,3.43,3.88,6.54,7.16,10.65,10.4l5.59,4.41c6.07,4.78,4.71.72,14.8,7.67l2.7-.6c.69-.15,1.44,1.87,2.06,2.44l8.22,7.55c2.27,2.08,6.28,4.86,7,7.28-1.43,3.37-2.02,5.74-1.79,8.62Z"/>
    <path class="cls-187" d="M132.37,236.92l2.24-1.09c4.28,2.47,13.14,8.28,15.06,12.78.92,2.17,1.43,5.31-1.54,5.42-.06,1.14-1.4.9-2,0l-1.87-1.22c-.33-6.2-11.26-11.38-16.84-9.06,4.41,4.86,2.58,7.95-3.29,9.28,1.52.72.85,1.38-2,2l-2-1c-1.42-1.19-2.75-1.19-4,0l-8-2c-2.63-.57-2.46-1.23-.02-2.29l-1.06-5.82c-.45-2.46-.69-4.45-2.4-6.27-2.92-3.1-5.72-5-9.51-6.77l-4.05-5.75c-.24-.34-.16-6.29-10.02-6.34-5.45-4.04-10.93-8.39-17.43-11.35-1.14-.52-2.33-2.93-2.32-4.04l.72-1.12c10.05,5.39,20.54,10.04,31.49,13.95,4.75,4.61,9.25,9.47,13.5,14.59,3.75,3.76,8.74,4.8,14.97,3.11,3.67.48,7.12,1.48,10.36,3Z"/>
    <path class="cls-171" d="M94.13,247.03c.67.83,0,1.17-2,1l-18.85-6.21-10.42-3.67c-1.87-.66-4.44-2.26-5.86-3.12l1.04-1.05c.55-1.82,2.37-1.92,5.46-.27-.79-2.5.09-4.03,1.84-5.84l-8.81-7.79.14-1.43c-4.4-2.18-8.24-5.05-11.5-8.61-.28-.28-.79-.77-1.02-1.05l-2.46-.92c-7.92-8.6-15.42-17.58-22.48-26.93l.9-2.23c2.68,1.03,4.61,4.01,6.85,6.24,5.7,5.66,10.62,11.04,15.77,17.38,1.62,1.99,4.53,4.09,6.62,6.12,2.66,2.57,5.92,4.27,9.37,5.67,2.27,2.64,4.86,6.75,7.98,7.96l6,2.31c2.95,2.26,6.25,4.46,9.77,6.09,2.61,1.21,2.86,4.97,1.42,7.05-3.81,5.55,6.13,3.6,10.24,9.29Z"/>
    <path class="cls-219" d="M189.04,329.03c.13,1.4-.17,2.74-.91,4-.32.32-.99,1.4-1.46,1.77l-7.77,5.99c-1.28.99-2.65,1.79-3.77,2.25l.11-1.05c-.86-.18-.86-.48-.06-.9-.82-2.77,1.67-4.97,4.18-3.12.61-2.45,1.72-4.72,3.35-6.81.93-4.45-2.56-5.46-10.49-3.04l-1.16-2c-11.27-1.92-22.61-3.49-34.03-4.7-2.63-.5-4.55-1.75-5.76-3.77-4.06-.69-26.64-9.69-27.48-11.42-.28-.57.72-1.47,1.45-1.96l1.51-1.63c8.27,2.06,16.18,5.04,23.74,8.95,6.89.76,13.73,2,20.51,3.71h12.7c8.39,2.59,16.68,3.01,24.87,1.26,4.81,3.23,3.61,8.55.47,12.48Z"/>
    <path class="cls-160" d="M73.22,167.97c2.07.15,4.39,2.26,5.73,4.22,3.33,4.87,11.05,11.09,16.7,14.47,5.24,3.14,6.21,9.08,9.59,7.53l1.89,2.84,3,4c1.42.84,2.64,2.41,3,4l3,4c1.58,1.04,3.44,3.13,4,5,1.35,1.97,2.91,3.79,5,5l3.42,4.5,5.35,6.88c.92,1.18,1.75,2.63,2.18,3.77-1.2,2.81-4.43.53-3.81-2.1-10.81-7.32-19.97-13.91-23.85-27.25-1.58,1.31-2.74-.63-1.24-1.9-3.61-4.9-8.24-9.16-13.42-12.48-11.82-6.27-24.57-13.86-34.22-23.18-2.39-2.31-11.97-12.41-12.25-15.02-.04-.34.39-.72.94-1.12-.84-2.91,3.61-2.89,5.79-2.09l5.66,11.23c4.34,2.89,8.85,5.46,13.51,7.71Z"/>
    <path class="cls-166" d="M141.13,271.03c2.95.85,7.06.87,10,0h12c5.89,1.05,7.22,1.05,4,0,1.43-.63,3.26-.87,5-.89,4.05.29,8.05.59,12,.89,3.77-2.1,8.3-1.08,12.34.52,12.41-.77,28.61.58,22.66,17.48-.28.87-.62.86-1,0-2.51.72-3.24-4-3.17-5.89-2.32-.49-5.1-.67-8.37-.54-3.6-1.4-7.27-2.49-11-3.27-9.37.32-18.73.89-28.08,1.71l-1.53-1.83c-4.37.36-7.63-1.04-9.79-4.17l-19.4-.03c-2.51,0-3.78-.93-3.82-2.83-.62,3.28-11.81,2.84-10.85-1.15-.87-.28-.86-.62,0-1l4.96.92,14.04.08Z"/>
    <path class="cls-149" d="M68.12,114.11c.32.78.8,2.07,1.01,2.91.81,1.12,1.8,2.72,1,4,.88,1.29,1.55,2.96,2,5l3,8,2,5,5,12c-1.32-.36-3.68-2.16-4.23-3.5l-4.49-10.98c-3.56-5.94-1.28-7.16-4.41-11.97l-7.63-11.73c-6.2-9.53-2.72-13.33-8.96-17.19-8.26-5.11-10.58-8.4-21.23-2.85-.53-.29-.96-.61-1.07-1.02-.22-.82,9.13-9.64,10.87-10.8-.37-1.31,7.26-3.88,7.9-3.81,3.17.32,10.28,10.16,11.64,13.13,1.12,8.57,3.65,16.51,7.59,23.81Z"/>
    <path class="cls-61" d="M26.07,272.14c6.03,7.59,11.31,15.8,15.85,24.6,2.84,2.59,4.85,5.36,6.02,8.32,1.22,3.3,3.1,6.42,5.3,9.73,3.9,5.87,7.08,6.93,14.4,14.76,9.43,10.08,9.78,5.53,11.53,10.82-.27,1.42-1.28,1.3-3.04-.35-2.24-.45-5.78-3.36-7.77-5.04l-3.76-3.18c-5.37-4.54-14.86-14.56-19.47-19.78.15-2.05.12-2.8-2.08-3.12-3.09-2.31-5.2-5.23-6.97-8.9l-3.84-6.98c-.2-1.41-.9-2.74-2.11-4-.69-1.6-1.69-2.93-3-4-1.11-2.22-2.32-4.7-3-7-1.48-1.68-1.9-3.11-1.26-4.28-1.39-.19-1.98-2.41-1.74-3.72-1.04,0-1.83-2.17-.97-3.01l.8-2.5c1.87,3.2,2.94,6.19,5.12,7.62Z"/>
    <path class="cls-6" d="M103.13,267.03c.69.88,1.69,1.25,3,1.1l2,.68c1.91.86,4.05.97,6,.22,1,.04,2.49.5,3,1,1.06.48.45.77-.7.96-.29.05,5.14-1.32,5.7.04.36.26,2.16.99,2.93,1l7.92.15c2.94.53,2.04,4.84-.77,4.95-.51,3.34-3.56,4-9.16,1.97-8.63-3.71-16.06-1.87-18.11-2.81l-7.14-3.29c-7.67-3.53-9,.08-20.86-7.91-1.15-.77-2.96-3.25-3.81-4.22,7.22,1.98,14.61,3.58,22.39,4.88l7.61,1.27Z"/>
    <path class="cls-217" d="M66.82,259.15l-.55,2.42c-.19.82,1.9,2.06,2.74,2.48l4.13,2.03c-.25.47-.52.9-.91,1.17-.57.41-12.21-3.62-13.46-4.09-.67-.26-1.19-.71-1.65-1.25-1.46.93-3.32.41-5.59-1.58-3.91-3.46-7.73-5.58-11.48-6.35l-2.05.74-12.09-7.39c-4.96-2.04-9.24-3.48-11.79,1.69-1.25-.67-2.16-2.38-2.73-5.12,0-.21.05-.59.07-.84,0-.92.32-1,.94-.3l.14-2.28c3.62-.76,7.13-1.22,10.53-1.4l5.32,2.67c6.13,3.07,11.72,6.48,18.04,9.01l9.91,3.97c3.76,1.51,7.29,2.82,10.48,4.41Z"/>
    <path class="cls-211" d="M20.12,178.91l4.58,6.73c1.01,1.48,2.7,3.52,3.93,4.95l8.49,9.92,7.04,8.47c-7.1.51-6.89-2.2-11.27-9.04-3.38-5.28-9.04-9.71-13.82-13.75-1.34-1.13-2.62-5.23-4.24-5.58l-6.07-1.31c-1.53,2.38-3.24,3.3-5.76,3.67l-1.4,3.9c-.42,1.17-1.02,2.45-1.45,3.14l.1-9c.11-.6.2-1.01.9-1,.16-1.25.59-1.95,1.28-2.09l3.81-.27c1.14-.08,1.83-3.32,2.55-4.27,2.71-3.58,7.51-.42,9.38,2.72.56.95,1.53,2.17,1.96,2.79Z"/>
    <path class="cls-34" d="M62.13,88.03c.16,1.31-.06,3.77.37,5.3l3.8,13.59c.71,2.55,1.32,4.97,1.82,7.19l-1.67.52-3.95-9.08c-4.63-10.63-.34-9.28-3.63-14.16l-5.37-7.97c-.95-1.41-3.72-3.82-4.65-4.48-2.27,1.34-3.95,2.13-5.19,2.1l-2.67-.06c-1.16,1.07-1.79,1.07-1.9.03-.33-.39-.6-.79-.66-1.22-.12-.82,7.81-7.79,9.65-8.88,1.22-3.6,9.23-3.13,10.35,1.56-.09,5.72,1.14,10.9,3.7,15.54Z"/>
    <path class="cls-140" d="M222.3,282.81c1.49.93-1.31,6.62-3.17,6.22-2.53-3.68,1.25-11.29-3.76-12.97-20.31-6.82-14.26,1.81-26.58-5.97l-4.66.94c-.87-.28-.86-.62,0-1,3.5-.03,8.06-1.28,11.64-2.17l11.54-2.89,2.55.31c3.75,1.99,7.81,3.42,12.21,4.28,2.48,5.19,2.56,9.61.24,13.25Z"/>
    <path class="cls-96" d="M146.13,254.03c-1.7.87-5.14.77-7,0-1.74.3-3.74.64-6,1,.87.28.86.62,0,1-1.4,0-3.63-.59-5-1-1.62-.64-2.95-1.31-4-2l4.35-4.81-4.44-4.67c3.69-3.13,8.73-3.34,13.3-.66,5.18,2.52,9.79,4.99,8.8,11.14Z"/>
    <path class="cls-14" d="M226.13,278.03c-.03,1.49-1.16,3.57-2,5-1.06,1.47-1.76,1.7-1.83-.22-.04-3.9-.74-7.99-1.55-12.1l-7.13-1.22c-2.49-.43-5.26-2.42-6.31-4.52l2.33-.57c2.36-.58,4.59-1.22,6.5-2.38,10.93-2.47,12.89,8.25,10,16Z"/>
    <path class="cls-119" d="M218.13,289.03c.87.28.86.62,0,1l.72,1.54c-2.27,3.06-3.84,6.21-4.72,9.46l-3.27,3.62c-.66,1.79-1.45,3.38-2.73,3.38l.88-3.78c.29-5.08-.94-9.54-2.58-14.25-3.73-4.07,4.65-9.94,8.53-6.86.94.35,2.44,1.72,2.62,2.77l.55,3.12Z"/>
    <path class="cls-141" d="M132.28,232.08l3.81,2.1c4.15,2.29,17.02,14.62,19.91,18.87,1.04,1.86-1.38,2.45-2.87,1.61-1.73.5-3.96,1.07-5-.63,1.81-8.51-9.42-13.83-15.77-17.11-2.33-.42-3.37-1.4-3.13-2.94-.44-2.94-6.8-5.01-7.24-6.95.8-1.76,2.37-1.57,4.72.55l5.57,4.5Z"/>
    <path class="cls-48" d="M18.1,121.96l-3.07,8.03-2.56,2.82c-1.62,4.85-3.4,6.26-5.34,4.22.29-1.61.89-3.49,1.63-5.3l4.97-12.21c.91-2.25,1.71-4.49,2.4-6.49,1.3-.17,3.9-.4,4.99-1.08l-1.73,5.64-1.29,4.37Z"/>
    <path class="cls-212" d="M40.99,80.99l-3.05,3.93c-5.87,7.55-5.26,3.16-6.75,7.89-4.16,13.21-4.94,5.4-9.03,13.09-1.19,2.24-2.01,3.22-4.02,3.13v-1l3-4c.64-2.08,1.99-4.41,3.16-6.84,1.52-3.18,2.97-6.38,5.84-8.16,2.51-2.98,5.04-5.83,7.6-8.55l1.37.54,1.9-.03Z"/>
    <path class="cls-138" d="M60.13,69.03c0,2.8.3,5.9.71,9.05l1.29,9.95c-2.5.01-5.59-6.58-5.08-10.74s-1.35-7.71-5.35-7.52l-3.62,1.17c-.99,1.92-2.89,3.29-4.01.96-1.13-.88-.65-1.34.82-1.18,3.41-5.87,11.49-7.23,15.24-1.67Z"/>
    <path class="cls-36" d="M222.13,260.03c2.34-1.1,4.02-1.05,5.04.13,4.55-1.55,4.74,7.2,1.93,8.86l.73.91c-1.08,1.94-1.65,3.64-1.7,5.1l-.15,2.35c-.04.53-1.35.61-1.85.65.11-5.24.4-7.7-2.98-13.23-1.32-2.16-7.41-1.12-7.02-2.77,1.6-.97,4.13-2.14,6-2Z"/>
    <path class="cls-168" d="M15.03,129.98c-.64,1.67-1.38,3.34-2.14,5.02,1.75,1.09,1.68,1.8.94,3.41-.41.88-5.93,10.22-6.5,10.48-.32.14-.72.09-1.15-.01-.12,2.68-1.07,2.63-2.04.16l1.64-6.47c.53-2.08,1.05-3.79,1.36-5.53,3.27.14,2.64-6.55,7.9-7.04Z"/>
    <path class="cls-98" d="M16.13,235.03c.81,1.12,1.31,1.73,2,1l4.94,3.07c-5.53,4.82-6.82,1.5-10.67,3.67-1.46-.98-2.1-4.87-1.18-6.66-.24-1.84-.36-3.88,1.77-3.07l3.14,1.99Z"/>
    <path class="cls-83" d="M39.1,81.02c-5.87,5.63-4.12,5.01-8.97,8.01l3-6,3-3,.98-2.21,3.05-2.79c.2-.26.61-.79.88-.98-.58-1.59,1.66-3,3.02-2.17l4.01-.96c-.22,2.55-1.21,3.32-3.43,4.86-1.81,1.26-4.11,3.84-5.55,5.23Z"/>
    <path class="cls-202" d="M60.13,66.03v3l-5.01-1.55c-1.46-.45-5.19.2-6.49.98l-3.74,2.24c-.8-.28-.71-.82.26-1.6,1.68-2.32,3.83-4.45,6.14-6.15,2.6-3,7.55.3,8.83,3.08Z"/>
    <path class="cls-150" d="M230,257.03c2.15-.41,5.94.06,4.86,2.67l-1.96,4.04c-.79,1.64-1.33,3.68-1.78,5.28-.95,1.55-1.75,1.93-2.03,0,.58-3.06,0-6.6-1.93-8.86-1.8-.42-2.74-.83-1.04-2.13l3.87-.99Z"/>
    <path class="cls-102" d="M78.18,201.2c5.03,1.43,4.41,4.98-.63,5.44-4.48-1.74-9.09-2.97-13.82-3.67-2.32-2.58-5.18-4.59-8.57-6.03-3.33-3.25-7.67-4.76-11.94-10.76l-4.67-6.56c-6.85-9.62-17.76-14.1-23.4-19.73-1.34-1.34-5.87-.48-6.64,1.13l-1.05,6.68-5.33,3.32c-.89-1.04-.63-4.41.21-5.89,0-.19.07-.56.1-.77.67,1.2,6.15-4.89,5.12-7.47l4.52-5.64c1.45.37,3.39.8,4.42,1.24l5.93,2.58c1.31.57,4.3,2.22,5.33,3.27l7,7.17c1.03,1.06,4.37,2.29,5.23,3.43l6.13,8.18c1.65,2.2,4.19,4,6.39,5.44,3.05,7.38,2.91,3.94,12.16,10.86l7.65,5.72c1.6,1.2,4.04,2.02,5.85,2.05Z"/>
    <path class="cls-184" d="M57.09,59.04l1.24-.87c.63,2.26,1.24,3.88,1.81,4.85v3l-5.09-1.96-3.75-1.12,2.83-3.92c1.79-1.47,2.78-1.47,2.95.01Z"/>
    <path class="cls-113" d="M153.14,343.1c.22-3.65,9.39-2.03,12.06-.98,3.3,1.3,5.92,2.71,2.93,5.9,1,1.05-1.73,2.34-3,2-.73,1.94-2.34,3.42-4.28,4.15-.42,1.21-1.67,2.82-2.78,3.58l-5.6,3.84c-1.05.72-3.25,1.26-4.38,1.24-1.07,1.09-1.72,1.15-1.97.2-2.02-2.21,2.07-5,4.16-3.04,3.01-1.16,5.77-3.01,8.5-5.29l2.46-2.06c.55-.46-1.43-2.77-2.17-2.93-5.61-1.2-13.47,1.06-16.62-.16l-8.04-3.1-7.79-3.04-7.99-2.99c-1.67-.63-3.44-1.82-4.82-3.01l-4.69-4.07c.58-5.58,8.81-.86,11.16,2.52,3.69.08,7.16,2.06,9.21,5.18l9.49.59c5.99,3.34,10.71,3.83,14.15,1.47Z"/>
    <path class="cls-56" d="M129.13,368.03c-1.79-.15-3.12-.15-4,0l-11-5c.12-.5.29-1.62.74-1.51s1.82.45,2.26.63l7.54,3.03c1.97.79,4.08,1.04,4.47,2.86Z"/>
    <path class="cls-136" d="M148.1,362.83c-1.56,2.85-8.19,7.95-12.97,7.34.63-3.24,1.86-.34,8.13-5.01-1.97-2.17.72-4.01,2.87-2.13l1.97-.2Z"/>
    <path class="cls-81" d="M220.13,292.03c-2.2,2.89-4.25,5.86-6,9l-.73-1.27,4.73-9.73c2.23-2.23,2.46-.56,2,2Z"/>
    <path class="cls-28" d="M175.13,343.03c-2.36,3.61-5.76,7.24-10,8-.44-.31-.43-.64,0-1l3-2c-.9-2.84,4.34-7.81,7.11-6.05l-.11,1.05Z"/>
    <path class="cls-229" d="M107.2,202.93l1.24,1.9,2.71,6.35-1.02.85c-.58-.07-1.64-.11-1.78-.63l-.6-2.16c-.45-1.6-2.06-3.68-3.44-5.24-3.62-4.08-4.62-7.51-11.57-9.33l-4.95-1.29c-2.7-3.11-5.94-3.27-9.75-2.8-2.18-.79-5.9-2.84-8.24-4.08-9.79-5.18-2.66-3.38-14.25-13l-5.46-4.53c-2.7-2.24-5.11-4.75-7.33-7.42l-3.98-4.78c-5.19-.5-1.99,0-8.14-7.22-2.7-3.17-7.22-3.25-11.18-3.97s-6.31.04-8.55,3.35c-1.62,1.33-3.17,3.7-4.08,5.75l-3.67-1.64,1-4,2.04-.16,2.05-1.12,5.39-9.93,2.37,1.1c9.01-6.6,23.51,4.47,29.69,11.35,11.37,17.41,28.97,31.27,47.83,39.99,5.27,3.46,9.84,7.69,13.69,12.68Z"/>
    <path class="cls-185" d="M195.13,324.03c-.33,1.31-1.32,3.41-2.37,4.44l-4.63,4.56-1.01-1.23,1.92-2.77c.95-2.72,2.31-4.38,4.09-5,1.22-.95,1.89-.95,2,0Z"/>
    <path class="cls-177" d="M10,205.02c1.14.97,1.75,1.58.14,2.01l-4.18-3.07c-.8-.59-2.2-2.16-2.82-2.96,2.71,0,5.26,1.75,6.86,4.02Z"/>
    <path class="cls-169" d="M146.13,254.03h2c1.55,0,3.72.29,5,.63-.11.78-.78,1.24-2,1.37h-2c-1.79-.15-3.46-.48-5-1-.97.86-3.8.74-5,0-.87-.28-.86-.62,0-1h7Z"/>
    <path class="cls-213" d="M224.13,283.03l-1.62,3.41c-.9,1.89-1.75,3.94-2.38,5.59l-2-2v-1h1c1.19-1.28,3.18-4.44,3.17-6.22l1.83.22Z"/>
    <path class="cls-27" d="M73.14,266.09c1.7,1.27,14.46,6.08,17.09,6.82s4.7,1.46,6.61,3.4l5.4,1.03c1.78.34,5.27,2.33,6.77,3.22-.47,1.85-1.39,4.04-.57,4.59,4.87,3.27,3.92.3,10.77,4.46l5.82,3.53,5.49,3.51,4.8.99c1.01,1.01,2.39,2.81,3.33,2.59s2.89-1,4.05-1.5c3.21,1.78,7.02,3.02,11.16,3.66l11.16,1.71c1.25.19,4.57-.55,5.57-.61,2.41,2.92,5.34,2.08,8.28,2.46,3.27.42,14.77,1.98,17.16.03,1.47-1.21,5-3.43,6.11-2.26,1.5,1.6,3.21,3.69,4.38,5.2l-3.92,5.68c-.47,1.66-1.62,3.48-3.47,5.45-1.17,1.36-2.64,2.84-4,4h-2c-2.27-2.1,3.97-7.65,6.03-8.97l-4.14-5.12c-8.5,3.81-18.61,2.86-27.18-.44-9.52-.76-19.03-1.46-28.53-2.11-11-4.07-22.01-8.18-33.04-12.33-7.99-6.26-15.83-12.75-23.53-19.47-8.72-4.65-17.57-8.82-26.55-12.49l.94-1.17,10.44,2.85c1.96.53,3.95.99,5.57,1.32Z"/>
    <path class="cls-89" d="M2.13,171.03c-.02.58.24,1.67.36,2.27l-.08,4.64c-.01.65-.84,1.65-1.28,2.09-.79-1.05-.74-3.78,0-5-.68-2.05-.68-4.39,0-7l.19-2.33c.03-.33.5-.38,1.02-.56l-.21,5.89Z"/>
    <path class="cls-56" d="M92.13,351.03c-1.9-1.08-5.15-1.51-6-4,1.39-2.14,6.76,2.53,6,4Z"/>
    <path class="cls-208" d="M60.13,63.03l-1.39-.12c-1-.09-.03-3.86-1.65-3.87-1.97-.8.52-2.28,2.05-3.01l.94-1.05.06,8.05Z"/>
    <path class="cls-203" d="M20.16,267.02l.97,3.01c.51.96.3,1.27-.77,1l-4.23-9c.28-.87.62-.86,1,0l3.03,4.99Z"/>
    <polygon class="cls-180" points="128.13 255.03 122.13 255.03 124.13 253.03 129.22 253.06 128.13 255.03"/>
    <polygon class="cls-69" points="184.13 270.03 184.13 271.03 173.12 271.07 172.13 270.14 184.13 270.03"/>
    <path class="cls-97" d="M11.22,236.11l1.18,6.66-.94.3c-.45-.63-1.45-2.91-1.43-3.95l.1-5.09c1.53-.99,1.9-.29,1.09,2.08Z"/>
    <path class="cls-72" d="M45.13,312.03c-.62-.7-1.55-2.28-2.08-3.12.54-.66,1.82-1.92,2.19-1.37l2.04,3c.4.58-1.75,1.45-2.16,1.49Z"/>
    <path class="cls-133" d="M139.13,255.03h5c.87.28.86.62,0,1h-11v-1c1.73-.73,4.44-.84,6,0Z"/>
    <path class="cls-85" d="M75.13,134.03c-1.82-2.09-2.69-5.17-3-8,1.93,2.3,3.07,4.98,3,8Z"/>
    <path class="cls-218" d="M59.13,56.03l-2.05,3.01h-2.95c1.12-1.86,2.8-3.07,5-3.01Z"/>
    <path class="cls-87" d="M231.13,269.03c-.52,1.87-1.95,4.3-3,6l-.91-1.05c.97-2.28,1.65-3.76,1.88-4.96h2.03Z"/>
    <path class="cls-104" d="M44.89,70.7c-.32.19-.64.84-.82,1.18l-3.02,2.17-.85-2.05,4.95-2.9-.26,1.6Z"/>
    <path class="cls-56" d="M79.17,340.37l1.97,3.69c-2.07-.53-3.88-2.13-5.01-4.04.75.15,2.22.27,3.04.35Z"/>
    <path class="cls-226" d="M204.13,315.03c-1.28,2.02-3.08,3.96-5,5-1.27-1.47,1.07-1.98,3.47-5.45l1.53.45Z"/>
    <path class="cls-23" d="M12.99,233.03l-1.77,3.07c-.11-.64-.73-1.7-1.09-2.08.01-.78.34-2.43.59-3.62l2.27,2.62Z"/>
    <path class="cls-204" d="M15.29,253.8c.39.99.36,3.31.06,4.19-.11.06-1.27-1.34-1.37-1.91l-.85-5.05c.32-.88.68-.83,1.08.06,2.67-1.16,3.31,1.07,1.08,2.71Z"/>
    <path class="cls-182" d="M88.13,163.03c.23.89-.06,1.06-.85.54-.86-1.43-1.53-3.03-2.15-4.66,1.45.97,2.61,2.49,3,4.12Z"/>
    <path class="cls-127" d="M14.13,249.03c1.07.05.66,1.2.08,2.06-.31-.04-.76-.05-1.08-.06-.8-1.9-1.79-5.27-1.73-7.12.21.18,1.14,1.62,1.46,2.33l1.27,2.79Z"/>
    <polygon class="cls-198" points="151.13 271.03 150.21 272.06 142.06 272.06 141.13 271.03 151.13 271.03"/>
    <path class="cls-229" d="M2.13,160.03c.22-1.69.59-3.48,1.06-5.08l1.28,4.87-2.34.21Z"/>
    <path class="cls-139" d="M108.11,249.73c.1.56.03,1.67.02,2.29-1.65-.22-3.6-.48-5-1l4.98-1.29Z"/>
    <path class="cls-57" d="M125.13,219.03c-2.68-.37-4.27-2.54-5-5,1.83,1.39,3.61,3.17,5,5Z"/>
    <path class="cls-171" d="M55.2,233.95c-1.76-.47-3.5-1.13-5.07-1.92.22-.54,2.27-.88,2.96-.46s1.8,1.74,2.11,2.38Z"/>
    <path class="cls-215" d="M21.13,104.03c-.59,1.91-.99,3.88-3,4,0-1.79,1.33-4.02,3-4Z"/>
    <path class="cls-49" d="M165.13,351.03c-.49,2.01-2.26,3.33-4.28,3.15,1.27-1.46,2.76-2.91,4.28-4.15v1Z"/>
    <path class="cls-161" d="M94.13,247.03l1.86.6c.31.1.26,1.05.27,1.27-1.45-.16-2.88-.46-4.13-.87l2-1Z"/>
    <path class="cls-43" d="M22.87,273.75c-.15,1.88-.66,1.54-1.74.1l-.77-2.82.77-1c.74,1.12,1.35,2.41,1.74,3.72Z"/>
    <path class="cls-137" d="M102.13,251.03c-1.26.14-3.9-.72-4-2l5.06.07-1.06,1.93Z"/>
    <path class="cls-76" d="M120.13,254.03h-4c.07-.87.74-2.18,1.48-2.22,1.11-.06,2.67,1.19,2.52,2.22Z"/>
    <path class="cls-66" d="M227.18,260.16c-1.77.03-3.47-.01-5.04-.13.94-.62,2.91-1.72,4-2l1.04,2.13Z"/>
    <path class="cls-207" d="M1.13,175.03c-.28.87-.62.86-1,0-.04-2.39.1-5.09,1-7v7Z"/>
    <path class="cls-33" d="M40.17,75.03l-.6,1.97c-.2.65-1.85.8-2.45.82l1.01-2.31c.2-.46,1.71-.46,2.04-.48Z"/>
    <path class="cls-126" d="M114.13,269.03c-1.26,1.61-4.83,1.39-6-.22l6,.22Z"/>
    <path class="cls-75" d="M32.24,293.03c-.6-1.1-1.88-2.77-2.11-4l2.97,2.69-.86,1.31Z"/>
    <polygon class="cls-114" points="122.13 270.03 122.13 271.03 116.43 270.99 117.13 270.03 122.13 270.03"/>
    <path class="cls-95" d="M36.13,80.03c-.21.48-.02,1.86-.5,2.08-.64.3-1.73.67-2.5.92.72-1.45,1.64-2.68,3-3Z"/>
    <path class="cls-54" d="M167.13,271.03l2.07.68c-1.85.44-4.76.37-6.07-.68h4Z"/>
    <path class="cls-111" d="M77.13,139.03c-1.23-1.2-2.04-3.24-2-5,1.17,1.35,1.87,3.15,2,5Z"/>
    <path class="cls-17" d="M22.87,273.75l1.26,4.28c-1.18-.83-2.59-2.7-3-4.18l1.74-.1Z"/>
    <path class="cls-120" d="M129.13,368.03l1,1c-1.36-.27-3.79-.45-5-1l.63-1.02,3.37,1.02Z"/>
    <path class="cls-170" d="M30.13,289.03c-1.17-1.06-2.25-2.5-3-4,1.85.11,2.65,2.09,3,4Z"/>
    <path class="cls-210" d="M116.13,209.03c-1.51-.86-2.62-2.35-3-4,1.46.83,2.62,2.37,3,4Z"/>
    <path class="cls-8" d="M12.13,206.03l1,3c-.69-.58-2.25-1.45-3-2l-.14-2.01,2.14,1.01Z"/>
    <path class="cls-107" d="M110.13,201.03c-1.5-.86-2.58-2.36-3-4,1.46.83,2.62,2.37,3,4Z"/>
    <path class="cls-143" d="M72.13,126.03c-.92-1.1-1.62-3.47-2-5,.28-.87.62-.86,1,0,.45,1.57.82,3.36,1,5Z"/>
    <path class="cls-181" d="M89.36,166.03s-1.65.3-1.71-.1l-.36-2.36.85-.54c.35.77.84,2.28,1.23,3Z"/>
    <polygon class="cls-145" points="1.13 180.03 .23 181.03 .13 175.03 1.13 175.03 1.13 180.03"/>
    <path class="cls-39" d="M71.13,121.03h-1l-1-4c1.3.61,2.05,2.42,2,4Z"/>
    <path class="cls-64" d="M149.13,256.03h-5v-1c1.69,0,3.88.29,5,1Z"/>
    <path class="cls-209" d="M17.13,262.03h-1c-.35-.75-.6-2.26-.69-3.14.48.08,1.5.35,1.53.84l.16,2.29Z"/>
    <polygon class="cls-121" points="106.13 268.13 102.25 269.05 103.13 267.03 106.13 268.13"/>
    <path class="cls-80" d="M18.13,236.03c-.13.42-.22,1.21-.57,1.06l-2.33-1.02.9-1.04c.55.25,1.52.7,2,1Z"/>
    <path class="cls-188" d="M78.18,201.2c4.07,2.36,5.83-4.08,10.38,3.06l3.49-2.68c4.03.76,7.74,4.44,10.05,8.31l3.46,5.8,3.09,4.73,5.56,9.1,11.16,3.28,3.88,1.17c1.36.46,2.61,1.62,3.13,2.94-7.17.71-8.14-2.53-18.24-.13-5.36-.57-9.56-5.08-12.32-9.4-8.48-6.25-3.73-8.72-16.2-12.01-2.18-.58-5.87-1.85-7.79-2.88l-9.25-4.98-7.23-4.12c-.84-1.07-1.94-2.32-3.08-3.43l-3.09-3.01,6.88,1.38,2.36,3.25c9.9,1.22,4.44-.3,14.11,3.38l1.51-1.3-1.83-2.45Z"/>
    <path class="cls-196" d="M132.28,232.08c-4.84-.13-2.36-3.28-10.29-5.05-4.84-1.08-10.16-10.92-11.87-15,.25.59-2.88-7.84-1.69-7.2,2.8,1.05,2.76,5.8,6.58,10.12l4.86,5.51c2.34,2.65,10.58,7.92,12.4,11.63Z"/>
    <path class="cls-56" d="M150.3,359.99l-4.16,3.04-2.87,2.13c-9.86-.19-12.58-4.93-21.09-5.46-11.37-.7-8.81-2.48-11.68-4.89l-5.62-4.73-4.91.75c-1.25.19-2.55-3.13-3.37-4.22-7.7-1.25-6.92-1.12-13.35-6.54l-7.67-6.47c-1.77-1.49-3.4-3.18-5.1-4.91l-6.43-6.57c-.81-.83-1.15-4.37-.14-4.9,6.34-3.28,8.13,8.55,19.96,8.23l11.66,7.36,5.2.78c11.83,6.32,7.38,7.98,19.23,11.9,10.63,3.53,7.85,4.15,14.7,6.05,9.13,2.55,15.15.36,15.29,2.55l.36,5.89Z"/>
    <path class="cls-153" d="M128.05,335.12l6.19-.31,14.41,7.07c2.17-.76,3.67-.35,4.5,1.22-1.85,5.93-6.03,1.25-13.7.58l-10.83-.94c-6.63-7.47-7.96-3-10.36-6.14-1.61-2.11-5.9-4.98-9.12-3.24-5.57-1.76-9.74-6.2-15.59-8.66-2.73-1.15-5.32-2.06-7.68-3.32l-9.22-4.92c-3.26-1.74-6.6-2.81-9.44-5.45-1.76-1.63-5.19-4.17-7.23-4.51l-5.5-.91c-2.03-.34-4.86-.53-6.53-.52-.86,0-2.36-.98-2.95-1.67l-4.68-5.48-2.78-4.47c-2.26-3.63-4.11-7.14-6.21-10.87l-3.61-6.4c-.69-1.22-1.34-2.88-1.63-4.03,1.41.93,2.82,1.95,4.58,3.24l6.32,4.66,8.36,6.83c6.57,5.36,18.42,20.33,26.96,19.5l4.49,2.91,7.1,3.67,8.93,4.58,6.51,3.35c2.83,1.46,5.81,1.77,8.65,3.69l6.88,4.64,9.24,3.97,3.97,1.93Z"/>
    <path class="cls-11" d="M150.13,280.03c4.96.68,10.03,1.03,15.2,1.05,4.54,2.11,9.45,2.84,14.72,2.17,8.24,3.68,16.56,5.27,24.97,4.79l1.41,1.96c5.24-.15,3.37,10.85,2.58,14.25l-1.56-7.37c-9.3-1.19-11.31,4.46-21.65,1.69-4.03-1.08-6.91-1.57-10.72-.86l-3.19-2.27c-1.65.9-15.51-.08-16.37-.42l-12.27-4.78c-1.33-.52-5.36.04-6.31-.91l-7.43-7.45-6.46-2.78c3.23.12,6.27-.5,9.16-1.97,1.72-.75,3.77-.45,6.17.89h10.41s1.34,2.01,1.34,2.01Z"/>
    <path class="cls-164" d="M73.22,167.97l-5.47-.41c-14.15-10.88-5.83,1.23-14.44-17.25l-5.05.82h-1.86c-4.77-4.85-11.18-10.19-17.33-13.15-4.86-2.34-8.31-1.29-13.08.93-1.7.52-3.48,2.04-4.25,3.76l-2.71,6.1c-.16.36-1.61,1.07-1.96.83-.23-.16-.7-.57-.9-.74l3.42-5.48c1.43-2.29,2.42-5.87,3.29-8.39,3.43-1.29,3.12-4.21,7.61-6.29l6.4-2.97,13.54,7.67c2.12,1.2,3.97,2.15,5.1,4l3.39,5.53c.52.84,3.18,1.77,4.28,2.27,7.83,12.48,2.28,7,11.91,15.69l5.34,4.81,2.76,2.27Z"/>
    <path class="cls-124" d="M12.13,206.03c-2.1-6.3-2.22.32-5.01-7.01-.67-1.75-1.32-2.79-2.64-4.84-2.32-3.6,4.95-12.59,7.81-10.79,4.61,5.58,8.98,10.38,14.11,15.62,1.55,1.59,2.27,5.06,2.89,8.28-6.8,1.41-7.34-4.54-17.15-1.26Z"/>
    <path class="cls-211" d="M58.04,233.98l.45-2.21c.12-.61-1.52-1.6-2.06-2l-4.56-3.39,4.54-7c-5.09-2.77-9.33-5.07-11.23-9.34,10.25,8.03,7.29,3.25,18.93,13.98l4.51,4.15c-2.04,1.7-3.64,2.44-3.46,3.44l.9,5.09-8.03-2.72Z"/>
    <path class="cls-5" d="M123.17,320.77c5.8,1.35,11.5,2.98,17.11,4.89,12.29,6.7,24.64,7.56,37.83,3.47,3.92,1.4,3.44,5.92,1.25,8.83l-4.18,3.12c-1.47.2-2.64-.72-3.54-2.74l-2.65-1.35c-6.8,1-13.46,1.14-19.97.43l-1.89-2.51c-2.75.4-8.01-1.19-10.79-2.78l-7.65-4.39c-5.12,2.02-11.4-2.53-15.24-4.94-2.59-1.63-6.56-2.96-8.89-4.85-8.65-7.01-5.82.71-18.09-7.13-1.81-1.16-3.37-2.47-4.84-4.27-4.33-5.32-6.45-1.48-10.61-5.14-5.86-5.16-12.74-8.88-13.06-9.16l-13.78-12.21c-1.98-1.76-5.13-4.37-6.58-6.25l-7.13-9.27c-1.05-1.37-2.27-4.86-3.31-6.72-1.5-1.15-11.06-5.89-11.89-3.99l-1.08-2.71c.14-1.06.53-1.5,1.19-1.31-.16-.86.04-1.27.77-1.24,8.84.39,13.83,2,18.61,10.21,6.08,5.78,11.65,12.04,16.71,18.79,6.43,3.98,12.36,8.73,17.78,14.23,14.98,9.2,30.31,17.63,46.98,23.41,3.21,1.36,5.52,3.23,6.92,5.59Z"/>
    <path class="cls-49" d="M147.13,334.9c5.27-.76-1.65,2.18,10.44,1.01l9.75-.94c4.86-.47,7.42,3.27,7.86,6.11.04.23.08.69.06.9l-3.34,2.86c-1.26,1.08-2.71,2.48-3.77,3.19,1-5.41-12.12-5.2-14.99-4.93-1.33.13-4.09,1.16-5.3.59l-10.53-4.98c-1.02-.48-3.05-2.16-4.15-2.06-1.73.15-4.09-.3-5.11-1.52,3.93-.2,4.68-5.39,8.7-1.64,3.56,3.32,10.38,3.41,10.39,1.41Z"/>
    <path class="cls-197" d="M40.06,253.98l3.07.33c4.86,3.65,9.9,7.04,15.11,10.17,8.54,2.94,16.79,6.68,24.76,11.23,5.64,6.53,11.8,12.44,18.49,17.75l21.08,7.91c7.44,5.05,15.43,7.63,23.96,7.73l4.53,2.94,16.18.26c6.01,1.44,12.06,2.21,18.14,2.3,3.42-3.87,11.76-5.91,13.79.45-.11,1.51-.97,3.62-2,4.71l-4.03,4.26c-.52,2.09-2.11,3.91-4.09,5l.67-3.71c.4-2.24.39-4.63-1.2-6.31-3.36-3.55-5.75,2.73-17.02-.48-11.88-3.39-8.52-2.15-17.27-1.96l-8.12.17c-3.65-1.23-8.16-2.68-11.94-3.21-1-.14-3.63.29-4.46-.14-1.83-.95-5.29-2.95-7.26-3.62l-6.79-2.33-6.28-1.93-4.12-1.25-2.14,1.41c-10.94-5.84-21.16-12.89-30.66-21.15l-3.14-.41c-6.89-6.6-14.14-12.73-21.74-18.39-4.07-4.13-8.57-7.69-13.51-10.68l-1.36.21c-4.36-4.38-11.27-8.79-17.29-5.46-.02.47-.73,1.37-1.19,1.31-.19-.48-.17-1.55-.08-2.06l.81-4.43c4-1.03,7.92-.39,11.55,1.68l6.53,3.71c2.36,1.34,5.09,2.63,7.03,4Z"/>
    <path class="cls-199" d="M105.24,304.26c1.08,3.98.97.59,9.17,5.44,3.7,2.19,10.1,5.83,14.59,4.64l3.98,4.04,5.76,1.38c3.06.73,6.22.94,9.32.78,4.52,1.55,12.91,3.76,18.2,3.59,1.97-.06,3.87.64,4.81,1.97l-1.14,1.97c-10.72-.82-21.39-1.7-32.03-2.64-3.46-.96-5.45-2.43-5.95-4.4-2.9-.94-6.07-1.78-9.51-2.53-12.91-5.64-25.69-11.6-38.34-17.88-13.59-8.39-27.17-17.7-35.65-31.3-3.51-.64-14.58-10.38-15.31-13.01-.09-.32.34-.79.92-1.29l6,2.35c3.75,1.47,7.14,5.8,9.66,8.62l5.76,3.67c2.55,1.62,5.41,3.06,7.42,5.57,10.72,13.4,6.47,2.18,15.69,11.41,3.95,3.95,8.71,6.59,13.11,9.81s6.79,5.77,13.55,7.82Z"/>
    <path class="cls-28" d="M131.95,321.03l6.01,3.06c4.31-.95,7.3-.39,11.08.08l5.4.67c1.97.24,4.93.95,6.7,1l9.93.27c6.22.17,7.32-2.26,11.65-.68,2.47.9,2.63,5.5,1.48,7.29-1.57,2.45-2.96,3.85-4.83,5.24l-.63-7.07-8.95,2.12c-7.57,1.8-16.92.32-23.88-2.72l-13.29-5.79c-4.22-1.84-8.4-1.33-9.45-3.73-.11-3.2,6.79-1.23,8.78.26Z"/>
    <path class="cls-196" d="M48.26,151.13c.31.57.85,1.99,1.29,2.55l5.76,7.25c1.04,1.31,3.99,3.25,5.21,4.55l5.58,5.95c1.75,1.86,5.3,3.31,7.82,4.72,12.92,7.18,5.47,6.27,18.52,11.94,1.92.84,4.57,3.6,6.49,4.95,2.33,1.63,4.28,3.19,5.58,5.38l2.69,4.52c-2.42-2.15-5.11-4.91-7.89-6.92l-6.02-4.35c-9.72-7.04-9.39-1.06-20.95-11.78-6.21-2.39-5.28-7.73-9.72-9.08-5.2-1.58-8.36-5.34-10.18-10.25-9.93-7.22-.83-3.77-11.58-12.18l-5.49-4.29-6.96-4.71c-1.71-.48-4.94-.98-6.77-.85l-5.66.4c1.48-2.18,6.81-5.28,9.64-4.18,7.12,2.76,19.46,10.54,22.63,16.4Z"/>
    <path class="cls-206" d="M214.96,283.14l-3.88,1.04c-2.04.55-4.14,3.78-4.64,5.81l-9.55.27c-3.02.08-6.36-1.72-9.12-2.58l-7.88-2.47c-16.61.64-8.5-2.02-21.58-3.5l-7.22-.82-.95-.87c4.44-2.62,9.72-2.9,15.86-.82l8.28-.99c10.23-1.23,14.84.98,20.17-.87,1.66-.2,5.33.56,7,1.33,11.41,5.25,11.42-.75,13.53,4.47Z"/>
    <path class="cls-198" d="M165.99,279.21c-5.2.63-10.55.81-15.86.82h-11.3c-2.16.02-4.98-1.52-6.62-2.9l.77-4.95,3.98.84h20.67c2,3.97,4.82,5.45,8.36,6.19Z"/>
    <path class="cls-40" d="M57.13,261.92c1.71,4.19,2.02.16,9.7,4.28,1.94,1.04,4.1,2.39,5.77,3.08l7.13,2.95c6.05,2.5,10.68,6.17,15.17,11.15,13.08,11.67,15.86,13.08,33.01,17.34,4.45,1.11,9.28,5.13,13.9,4.85,10.32-.61,5.27.96,18.34,1.54l7.11.32c3.38.15,8.41,3.12,11.68,2.97l10.23-.46c1.58-.07,4.32-1.25,6.16-1.81,2.37,1.42,4.02,4.36,3.83,6.94-3.96-3.17-9.08-2.71-13.08,1.32h-8.12c-2.47.01-5.78-1.46-8.19-1.78-6.28-.85-12.85-.49-19.22-.67l-4.47-2.94c-4.4.25-8.36-.12-12.06-1.75l-6.75-2.98-9.94-5.48-5.15-2.03-9.53-2.57c-2.26-.61-5.75-3.43-7.38-5.03l-7.24-7.13c-1.86-1.83-3.61-4.03-5.62-6.43-1.43-1.71-4.64-2.4-6.45-3.51-4.62-2.82-8.55-5.66-13.82-7.44-9.99-3.37-13.66-6.7-22.06-12.65l3.84-.98,7.04,5.25c2.03,1.51,4.13,2.84,6.19,3.67Z"/>
    <polygon class="cls-52" points="139.13 254.03 139.13 255.03 133.13 255.03 134.04 254.03 139.13 254.03"/>
    <path class="cls-195" d="M34.05,255.02c1.7,4.51,2.67,2.59,7.13,6.76l4.85,4.55c.6.56,2.5,1.17,3.57,1.46,1.08,1.45,2.85,5.2,4.22,6.42l5.43,4.86c6.59,5.9,4.64,6.91,10.79,9.96,6.79,3.37,11.61,8.89,19.49,13.02,5.32.29,2.79.82,12.69,5.91,12.11,6.23,4.08.59,13.43,5.1l6.31,3.05c1.47.71,4.55,1.95,6.06,2.56.65.27,3.2-1.08,3.35-.39l.58,2.74c-2.89,2.21-3.12-1.79-8.78-.26-8.34-2.33-2.96-3.04-14.06-6.9l-12.7-4.41c-1.93-.67-4.77-3.9-6.59-4.67-2.49-1.05-4.98-2.01-7.15-3.15l-7.25-3.85c-4.71-2.5-7.98-4.4-11.75-8.32-11.69-12.14-7.75-3.73-16.29-13.39-2.02-2.28-3.24-4.02-4.87-6.71-1.43-2.35-4.84-4.79-6.51-6.95l-4.48-5.77c-1.74-2.24-4.86-5.64-7.71-5.96l-8.41-.92.09-2.09c.04-.84,7.65-1.74,12.42,2.36,2.07.81,5.4,3.02,6.14,4.98Z"/>
  </g>
</svg>